<?xml version="1.0" encoding="UTF-8"?>
<svg version="1.1" xmlns="http://www.w3.org/2000/svg" width="265" height="379">
<path d="M0 0 C1.79735524 -0.0027012 3.59470904 -0.00658882 5.39205933 -0.01159668 C9.13895735 -0.01745919 12.88547122 -0.00903248 16.63232422 0.00976562 C21.41126031 0.0325865 26.1892991 0.01939172 30.96820259 -0.00452423 C34.67278697 -0.01904236 38.37716177 -0.01434936 42.08175278 -0.00401306 C43.84303776 -0.00136408 45.60434241 -0.00455041 47.3656044 -0.01393127 C62.06829759 -0.07509505 70.83768251 1.5666989 81.47944641 12.00655651 C83.32364595 13.85614172 85.15442973 15.71834974 86.984375 17.58203125 C88.28219637 18.88343569 89.58113614 20.18372566 90.88113403 21.48295593 C93.5916384 24.19813223 96.29183072 26.9230204 98.984375 29.65600586 C102.42545399 33.14812795 105.88602845 36.62009866 109.35384941 40.08564472 C112.03313128 42.76574453 114.70450743 45.45360849 117.37332535 48.14412498 C118.64652713 49.42682944 119.92151518 50.70776354 121.19836044 51.9868412 C122.98348938 53.77851817 124.75837774 55.57975845 126.53076172 57.3840332 C127.05236374 57.90427567 127.57396576 58.42451813 128.1113739 58.96052551 C134.58475393 65.60381246 137.35506339 72.00636042 137.38262939 81.34220886 C137.38833954 82.504198 137.39404968 83.66618713 137.39993286 84.86338806 C137.40160965 86.7624868 137.40160965 86.7624868 137.40332031 88.69995117 C137.40795242 90.05390558 137.41297761 91.40785869 137.41836548 92.7618103 C137.43145533 96.43355569 137.43792797 100.10528281 137.44237614 103.77704787 C137.44531292 106.07455103 137.44941891 108.37204927 137.45388031 110.66954994 C137.46754744 117.86807804 137.47721743 125.06659482 137.4810822 132.26513499 C137.48555848 140.55562098 137.50308959 148.84594174 137.5320828 157.13637751 C137.55375191 163.55696705 137.5637893 169.97751027 137.56512332 176.39813596 C137.56616779 180.22700287 137.57199857 184.05571428 137.58994293 187.88454247 C137.60651399 191.49039018 137.60853578 195.09596704 137.59980392 198.70183945 C137.59867576 200.64173617 137.61232388 202.58162427 137.6265564 204.52146912 C137.57453151 215.50803393 135.65999421 225.09531295 128.2421875 233.53125 C119.06987696 241.44258376 109.41700536 242.98174415 97.62915039 242.91943359 C96.39544205 242.92469055 95.1617337 242.92994751 93.89064026 242.93536377 C90.53090755 242.94625063 87.17173439 242.94377555 83.81203389 242.93422651 C80.27999118 242.926582 76.74797087 242.93368889 73.21592712 242.93838501 C67.28559119 242.94382943 61.35536766 242.93668638 55.42504883 242.92236328 C48.59091233 242.90604677 41.75704453 242.91132319 34.92291456 242.9278425 C29.03300573 242.94150403 23.14317727 242.94335411 17.25325769 242.93552649 C13.74528669 242.93087452 10.23744151 242.93015607 6.72947884 242.94013596 C2.81442133 242.95049764 -1.10034095 242.93609232 -5.01538086 242.91943359 C-6.16218323 242.92550629 -7.3089856 242.93157898 -8.49053955 242.93783569 C-20.10712478 242.84665498 -28.6660068 240.25690376 -37.3828125 232.40625 C-46.07655786 223.08436857 -45.33302947 211.72123732 -45.27539062 199.74609375 C-45.28081763 197.84953272 -45.28794353 195.9529759 -45.29663086 194.056427 C-45.31479826 188.92830607 -45.30782391 183.80050862 -45.29511452 178.67238235 C-45.28495268 173.29321706 -45.29438902 167.91407855 -45.30065918 162.53491211 C-45.30792632 153.50336765 -45.29837237 144.47195423 -45.27929688 135.44042969 C-45.25752999 125.01455781 -45.26458202 114.58899888 -45.2866025 104.16313457 C-45.30478308 95.19467086 -45.30730182 86.22630109 -45.29684782 77.2578249 C-45.29062752 71.90880012 -45.28973694 66.5599222 -45.30299377 61.21090698 C-45.31459035 56.18088076 -45.30645708 51.15125611 -45.28341675 46.12127304 C-45.27814997 44.28070618 -45.27960844 42.44010523 -45.28846741 40.59955215 C-45.33571242 29.78250414 -45.09651587 20.61486668 -38.6015625 11.5078125 C-37.828125 10.73179688 -37.0546875 9.95578125 -36.2578125 9.15625 C-35.505 8.36476563 -34.7521875 7.57328125 -33.9765625 6.7578125 C-23.62561962 -0.40242712 -12.04870367 -0.06434536 0 0 Z M37.80200195 16.4777832 C36.66354324 16.4914241 35.52508453 16.505065 34.35212708 16.51911926 C32.4975312 16.5502607 32.4975312 16.5502607 30.60546875 16.58203125 C29.33752975 16.6008989 28.06959076 16.61976654 26.76322937 16.63920593 C24.0739206 16.68115875 21.38475791 16.72544258 18.69555664 16.77319336 C15.2638882 16.8335206 11.83218388 16.88057773 8.40026569 16.92402363 C5.11435762 16.96811303 1.82868999 17.02591185 -1.45703125 17.08203125 C-2.68330734 17.09671951 -3.90958344 17.11140778 -5.17301941 17.12654114 C-15.66076086 17.16611292 -15.66076086 17.16611292 -24.6328125 21.96875 C-28.08406026 26.13054877 -27.9044659 29.83881114 -27.89825439 34.99557495 C-27.90122552 35.76231824 -27.90419664 36.52906153 -27.9072578 37.31903946 C-27.91595063 39.89613494 -27.91745353 42.47318399 -27.91894531 45.05029297 C-27.92357303 46.89481709 -27.92859762 48.73934026 -27.93399048 50.5838623 C-27.9471199 55.60038895 -27.95356035 60.61690221 -27.95800114 65.63344336 C-27.96093064 68.76609954 -27.96503519 71.89875206 -27.96950531 75.0314064 C-27.9831809 84.8285975 -27.99284758 94.62578021 -27.9967072 104.42298019 C-28.00118999 115.74041418 -28.0187479 127.05772752 -28.0477078 138.37512481 C-28.0693057 147.11829339 -28.07941045 155.86142798 -28.08074832 164.60462296 C-28.08179759 169.82894979 -28.08773147 175.05316321 -28.10556793 180.27746201 C-28.12201619 185.19074192 -28.12421993 190.10382277 -28.11542892 195.01712036 C-28.11465684 196.8210923 -28.11902376 198.62507479 -28.12888718 200.42901993 C-28.14155765 202.89057106 -28.1357569 205.35141193 -28.12530518 207.81295776 C-28.13336158 208.52784548 -28.14141798 209.24273319 -28.14971852 209.97928417 C-28.10609524 214.36808563 -27.33191019 216.98814899 -24.7578125 220.53125 C-24.0978125 221.52125 -23.4378125 222.51125 -22.7578125 223.53125 C-19.23227199 225.33415412 -16.3186515 225.78438309 -12.38896179 225.79867554 C-10.79309738 225.81147049 -10.79309738 225.81147049 -9.16499329 225.82452393 C-7.42949471 225.82316437 -7.42949471 225.82316437 -5.65893555 225.82177734 C-4.43235229 225.82849457 -3.20576904 225.83521179 -1.9420166 225.84213257 C1.41563128 225.8578619 4.77303176 225.86448683 8.1306994 225.86576414 C10.23120378 225.867188 12.33168243 225.87146206 14.4321804 225.87675858 C21.7681988 225.89525097 29.10414462 225.90343031 36.44018555 225.90185547 C43.26523026 225.90065475 50.08995838 225.92174517 56.91492301 225.9533428 C62.78517902 225.97954634 68.65533191 225.99022104 74.52564591 225.98894465 C78.02697431 225.98843614 81.52802131 225.99405678 85.02929115 226.01530075 C88.93802734 226.03837031 92.84633389 226.02913725 96.75512695 226.01708984 C98.48151649 226.03394836 98.48151649 226.03394836 100.24278259 226.05114746 C106.37213959 226.00319845 112.44824949 225.81561746 117.2421875 221.53125 C119.04578319 218.03368041 119.49692459 215.12699854 119.5206604 211.22245789 C119.53182388 210.17222946 119.54298737 209.12200104 119.55448914 208.03994751 C119.55772942 206.32767471 119.55772942 206.32767471 119.56103516 204.58081055 C119.57108078 203.37063766 119.5811264 202.16046478 119.59147644 200.91362 C119.61703673 197.60406693 119.63391103 194.29468465 119.64690447 190.98507285 C119.66255665 187.52302427 119.68934019 184.0610621 119.7149353 180.59907532 C119.76168621 174.04732044 119.79844812 167.49554923 119.83160818 160.94371301 C119.86985567 153.48298425 119.91925893 146.02234236 119.96959233 138.56168687 C120.07285731 123.21827074 120.16213532 107.87480586 120.2421875 92.53125 C119.56282135 92.52760437 118.8834552 92.52395874 118.1835022 92.52020264 C111.07723457 92.47821298 103.97160291 92.4087521 96.86572266 92.32373047 C94.21800108 92.29560105 91.57019678 92.27434684 88.92236328 92.26025391 C85.10406386 92.23871404 81.2867507 92.19200353 77.46875 92.140625 C76.29543121 92.13939636 75.12211243 92.13816772 73.91323853 92.13690186 C66.10277082 91.99944133 58.33926488 91.22517244 52.30166626 85.78167725 C47.81061923 80.92071931 46.01012043 76.27811945 45.92333984 69.6394043 C45.90347015 68.47857834 45.88360046 67.31775238 45.86312866 66.12174988 C45.85157745 64.87887711 45.84002625 63.63600433 45.828125 62.35546875 C45.80875885 61.07517288 45.7893927 59.79487701 45.7694397 58.4757843 C45.71824802 55.0843722 45.67855343 51.69292055 45.64129639 48.30133057 C45.60117501 44.8355542 45.55011992 41.36994052 45.5 37.90429688 C45.40400605 31.11338605 45.31894098 24.32240406 45.2421875 17.53125 C42.6206672 16.22048985 40.73676078 16.43703022 37.80200195 16.4777832 Z M62.2421875 18.53125 C62.14094028 26.16663311 62.07078636 33.80184377 62.02246094 41.43774414 C62.00231976 44.03644276 61.97500522 46.63509593 61.94042969 49.23364258 C61.89202362 52.96446942 61.86924349 56.6946982 61.8515625 60.42578125 C61.83091736 61.59148148 61.81027222 62.7571817 61.78900146 63.95820618 C61.78869934 65.03910019 61.78839722 66.1199942 61.78808594 67.23364258 C61.77920349 68.18628494 61.77032104 69.13892731 61.76116943 70.12043762 C62.04253892 72.63877541 62.04253892 72.63877541 63.94384766 74.34106445 C66.67054847 75.75307491 68.4070682 75.89412708 71.46972656 75.87182617 C72.51050354 75.87159958 73.55128052 75.87137299 74.62359619 75.87113953 C75.74038757 75.85565567 76.85717896 75.84017181 78.0078125 75.82421875 C79.15634705 75.81997391 80.30488159 75.81572906 81.48822021 75.81135559 C85.1564478 75.79456333 88.82412597 75.75690898 92.4921875 75.71875 C94.97915873 75.70370392 97.46613858 75.69001539 99.953125 75.67773438 C106.04966662 75.64465796 112.14588781 75.59445256 118.2421875 75.53125 C117.9121875 74.54125 117.5821875 73.55125 117.2421875 72.53125 C116.5821875 72.53125 115.9221875 72.53125 115.2421875 72.53125 C114.901875 71.665 114.901875 71.665 114.5546875 70.78125 C112.9013182 67.94690264 110.81254806 66.56362811 108.2421875 64.53125 C106.55486473 62.54864574 104.88852693 60.5480158 103.2421875 58.53125 C100.70608558 55.86509157 98.16752871 53.47088757 95.3046875 51.15625 C92.39665809 48.78508756 90.07268183 46.10284319 87.67578125 43.2265625 C84.78577202 39.8089494 81.64321124 36.85861632 78.1796875 34.03125 C75.42973639 31.69086608 73.4438978 29.37216652 71.2421875 26.53125 C68.40223494 23.54929982 65.55717399 20.96130366 62.2421875 18.53125 Z " fill="#3339ED" transform="translate(74.7578125,24.46875)"/>
<path d="M0 0 C0.99 4.455 0.99 4.455 2 9 C2.66 8.01 3.32 7.02 4 6 C6.125 5.3125 6.125 5.3125 8 5 C7.505 3.515 7.505 3.515 7 2 C9.375 0.9375 9.375 0.9375 12 0 C12.99 0.495 12.99 0.495 14 1 C14 0.34 14 -0.32 14 -1 C16.4375 -0.25 16.4375 -0.25 19 1 C19.8125 3.125 19.8125 3.125 20 5 C20.99 5 21.98 5 23 5 C23.495 7.97 23.495 7.97 24 11 C20.18639594 9.50179841 18.46073339 7.19998733 16 4 C15.9241309 11.51132765 15.87147676 19.02255704 15.83520508 26.53417969 C15.8200893 29.09118339 15.79959634 31.64816106 15.77368164 34.20507812 C15.73742138 37.87376317 15.72030164 41.5421064 15.70703125 45.2109375 C15.69154739 46.35992523 15.67606354 47.50891296 15.66011047 48.69271851 C15.65988388 49.7536673 15.65965729 50.81461609 15.65942383 51.90771484 C15.65276199 52.84481293 15.64610016 53.78191101 15.63923645 54.74740601 C15.75828842 55.49076202 15.87734039 56.23411804 16 57 C19.2775106 59.18500707 20.30510051 59.26351236 24.11401367 59.31884766 C25.67529243 59.34865219 25.67529243 59.34865219 27.26811218 59.37905884 C28.95104118 59.39638565 28.95104118 59.39638565 30.66796875 59.4140625 C32.39289299 59.44311172 32.39289299 59.44311172 34.15266418 59.4727478 C37.83086699 59.53259761 41.509101 59.57895106 45.1875 59.625 C47.67905022 59.66317476 50.17058717 59.70222619 52.66210938 59.7421875 C58.77462194 59.83830362 64.88721421 59.92333538 71 60 C70.67 59.01 70.34 58.02 70 57 C70.66 57 71.32 57 72 57 C72.99 59.97 72.99 59.97 74 63 C55.19 63 36.38 63 17 63 C16.01 61.02 16.01 61.02 15 59 C14.34 59.99 13.68 60.98 13 62 C10.875 63.1875 10.875 63.1875 9 64 C9 65.98 9 67.96 9 70 C10.65 70.33 12.3 70.66 14 71 C14 71.33 14 71.66 14 72 C19.91572071 74.57476786 25.77680897 74.33141968 32.109375 74.37890625 C33.85411102 74.40439796 33.85411102 74.40439796 35.63409424 74.43040466 C39.33934143 74.48342075 43.04457782 74.52379668 46.75 74.5625 C50.46964901 74.60641019 54.18921098 74.65305888 57.90875244 74.70530701 C60.22130787 74.73729805 62.53394059 74.76417746 64.84661865 74.78553772 C65.88820129 74.79902756 66.92978394 74.8125174 68.00292969 74.82641602 C69.38143097 74.84068382 69.38143097 74.84068382 70.78778076 74.85523987 C73 75 73 75 75 76 C75 117.58 75 159.16 75 202 C76.32 202 77.64 202 79 202 C79.33 201.34 79.66 200.68 80 200 C81.65 200 83.3 200 85 200 C85.33 194.72 85.66 189.44 86 184 C86.33 184 86.66 184 87 184 C87 190.33333333 87 196.66666667 87 203 C87.0467309 184.1979834 87.0819942 165.39597858 87.10362434 146.59391594 C87.11393475 137.86369764 87.12799061 129.13351544 87.15087891 120.40332031 C87.17081996 112.79364978 87.18371815 105.1840054 87.18817699 97.57430947 C87.19078315 93.54543644 87.19690392 89.5166382 87.21146011 85.48778915 C87.22505531 81.69411676 87.22921872 77.90054983 87.22621536 74.10685539 C87.22676466 72.71612029 87.23073059 71.32538159 87.23841095 69.93466759 C87.24840194 68.03190044 87.24476808 66.12907645 87.24050903 64.22628784 C87.24235262 63.16253874 87.24419621 62.09878963 87.24609566 61.00280571 C86.97931323 57.74758458 86.03899991 55.08146692 85 52 C85.33 51.34 85.66 50.68 86 50 C89.46420094 55.27161013 90.122029 59.57501752 90.14044189 65.81095886 C90.14615204 66.972948 90.15186218 68.13493713 90.15774536 69.33213806 C90.15942215 71.2312368 90.15942215 71.2312368 90.16113281 73.16870117 C90.16576492 74.52265558 90.17079011 75.87660869 90.17617798 77.2305603 C90.18926783 80.90230569 90.19574047 84.57403281 90.20018864 88.24579787 C90.20312542 90.54330103 90.20723141 92.84079927 90.21169281 95.13829994 C90.22535994 102.33682804 90.23502993 109.53534482 90.2388947 116.73388499 C90.24337098 125.02437098 90.26090209 133.31469174 90.2898953 141.60512751 C90.31156441 148.02571705 90.3216018 154.44626027 90.32293582 160.86688596 C90.32398029 164.69575287 90.32981107 168.52446428 90.34775543 172.35329247 C90.36432649 175.95914018 90.36634828 179.56471704 90.35761642 183.17058945 C90.35648826 185.11048617 90.37013638 187.05037427 90.3843689 188.99021912 C90.33234401 199.97678393 88.41780671 209.56406295 81 218 C71.82768946 225.91133376 62.17481786 227.45049415 50.38696289 227.38818359 C49.15325455 227.39344055 47.9195462 227.39869751 46.64845276 227.40411377 C43.28872005 227.41500063 39.92954689 227.41252555 36.56984639 227.40297651 C33.03780368 227.395332 29.50578337 227.40243889 25.97373962 227.40713501 C20.04340369 227.41257943 14.11318016 227.40543638 8.18286133 227.39111328 C1.34872483 227.37479677 -5.48514297 227.38007319 -12.31927294 227.3965925 C-18.20918177 227.41025403 -24.09901023 227.41210411 -29.98892981 227.40427649 C-33.49690081 227.39962452 -37.00474599 227.39890607 -40.51270866 227.40888596 C-44.42776617 227.41924764 -48.34252845 227.40484232 -52.25756836 227.38818359 C-53.40437073 227.39425629 -54.5511731 227.40032898 -55.73272705 227.40658569 C-67.34931228 227.31540498 -75.9081943 224.72565376 -84.625 216.875 C-93.41260524 207.44913786 -92.55970421 196.18223655 -92.4699707 184.10375977 C-92.4704801 182.19584534 -92.47273962 180.28793071 -92.47660828 178.38002014 C-92.48200664 173.22340823 -92.46267537 168.06715844 -92.43850732 162.91061139 C-92.41715582 157.50950595 -92.41780401 152.10840107 -92.41581726 146.70726013 C-92.4093801 137.64632969 -92.38816668 128.58553477 -92.35668945 119.5246582 C-92.31631423 107.88697982 -92.29898754 96.24938945 -92.28938007 84.61164951 C-92.28108715 74.60556414 -92.26385368 64.59949746 -92.24434257 54.59342837 C-92.24029209 52.44532284 -92.23655277 50.29721669 -92.2331202 48.14911008 C-92.22334486 42.03213443 -92.20887562 35.91521167 -92.1862812 29.79826927 C-92.18015143 27.94347233 -92.17570533 26.08866898 -92.17303848 24.23386383 C-92.16906616 21.70868823 -92.15895722 19.18361199 -92.14717102 16.65846252 C-92.14735538 15.91917828 -92.14753975 15.17989403 -92.14772969 14.41820723 C-92.12739792 11.33693238 -91.98243408 8.94730223 -91 6 C-90.34 6 -89.68 6 -89 6 C-88.67 71.67 -88.34 137.34 -88 205 C-87.01 205.33 -86.02 205.66 -85 206 C-83.71875 208.1796875 -83.71875 208.1796875 -82.5 210.875 C-80.57408811 215.10953704 -79.20734196 218.09382804 -74.7734375 219.9140625 C-73.98195313 220.14867187 -73.19046875 220.38328125 -72.375 220.625 C-68.08333333 221.91666667 -68.08333333 221.91666667 -67 223 C-65.30480165 223.10837866 -63.60510021 223.14686179 -61.90647888 223.15821838 C-60.80285004 223.1680072 -59.69922119 223.17779602 -58.56214905 223.18788147 C-57.34079758 223.19363693 -56.11944611 223.1993924 -54.86108398 223.20532227 C-53.58322021 223.21522186 -52.30535645 223.22512146 -50.98876953 223.23532104 C-47.47449824 223.2624333 -43.96021342 223.28340851 -40.44589496 223.30332303 C-36.77697946 223.32514374 -33.10810593 223.35255152 -29.43922424 223.37937927 C-22.48712609 223.42935927 -15.53500471 223.47427833 -8.58286101 223.51740164 C-0.6700224 223.56672876 7.24277412 223.62166361 15.15557206 223.67708123 C31.43700927 223.79098271 47.71848502 223.89780387 64 224 C64.33 223.01 64.66 222.02 65 221 C64.34 220.67 63.68 220.34 63 220 C63 219.34 63 218.68 63 218 C63.66 218 64.32 218 65 218 C64.67 216.02 64.34 214.04 64 212 C63.32947003 211.99761165 62.65894007 211.99522329 61.96809101 211.99276257 C45.65135835 211.93362227 29.33479244 211.85807853 13.01822376 211.76428509 C5.12764128 211.71932264 -2.76289603 211.67990905 -10.65356445 211.65356445 C-17.53120852 211.63058796 -24.40870967 211.59719394 -31.2862404 211.55129844 C-34.92774311 211.52736136 -38.56910423 211.50863583 -42.21068382 211.50238609 C-46.27632188 211.49521337 -50.34146722 211.4647829 -54.40698242 211.43237305 C-55.61395279 211.43380814 -56.82092316 211.43524323 -58.06446838 211.4367218 C-59.17359589 211.42418365 -60.28272339 211.41164551 -61.42546082 211.39872742 C-62.3868909 211.39411845 -63.34832098 211.38950949 -64.33888531 211.38476086 C-68.18190849 210.82911217 -70.70777939 209.16749476 -73.55928612 206.59121704 C-78.80712671 199.44594342 -77.6991128 190.40272437 -77.64697266 181.9609375 C-77.65375365 180.12053565 -77.66265948 178.28014058 -77.67352295 176.4397583 C-77.69626558 171.45621264 -77.68750073 166.47318608 -77.67162752 161.48963165 C-77.65894245 156.26699963 -77.67071588 151.04441117 -77.67855835 145.82177734 C-77.6876473 137.05232793 -77.67568673 128.28308927 -77.65185547 119.51367188 C-77.62464571 109.3842524 -77.6334604 99.25533617 -77.6609875 89.12592888 C-77.68369899 80.41908914 -77.68686865 71.71240064 -77.67379415 63.00554085 C-77.66601089 57.80966064 -77.66492716 52.61401675 -77.68147659 47.41815186 C-77.69595174 42.53252429 -77.68584395 37.64754367 -77.65700531 32.76198578 C-77.65041077 30.97218651 -77.65226419 29.18233252 -77.66331863 27.39255524 C-77.75756651 10.57938614 -77.75756651 10.57938614 -72 4 C-67.27484969 0.42732537 -63.00234776 -0.11622684 -57.19335938 -0.22119141 C-55.44134216 -0.25595078 -55.44134216 -0.25595078 -53.65393066 -0.29141235 C-52.39657104 -0.3112619 -51.13921143 -0.33111145 -49.84375 -0.3515625 C-48.54932983 -0.37471527 -47.25490967 -0.39786804 -45.92126465 -0.42172241 C-43.18436812 -0.47009418 -40.44744174 -0.51503415 -37.71044922 -0.55761719 C-34.20655781 -0.61245292 -30.70289844 -0.67630474 -27.19921112 -0.74279213 C-23.85163843 -0.80497646 -20.50394964 -0.85913222 -17.15625 -0.9140625 C-15.89889038 -0.93796051 -14.64153076 -0.96185852 -13.34606934 -0.98648071 C-11.59405212 -1.0117836 -11.59405212 -1.0117836 -9.80664062 -1.03759766 C-8.26586853 -1.06305161 -8.26586853 -1.06305161 -6.69396973 -1.08901978 C-4 -1 -4 -1 0 0 Z M-9.44018555 0.9465332 C-10.57864426 0.9601741 -11.71710297 0.973815 -12.89006042 0.98786926 C-14.7446563 1.0190107 -14.7446563 1.0190107 -16.63671875 1.05078125 C-17.90465775 1.0696489 -19.17259674 1.08851654 -20.47895813 1.10795593 C-23.1682669 1.14990875 -25.85742959 1.19419258 -28.54663086 1.24194336 C-31.9782993 1.3022706 -35.41000362 1.34932773 -38.84192181 1.39277363 C-42.12782988 1.43686303 -45.41349751 1.49466185 -48.69921875 1.55078125 C-49.92549484 1.56546951 -51.15177094 1.58015778 -52.41520691 1.59529114 C-62.90294836 1.63486292 -62.90294836 1.63486292 -71.875 6.4375 C-75.32624776 10.59929877 -75.1466534 14.30756114 -75.14044189 19.46432495 C-75.14341302 20.23106824 -75.14638414 20.99781153 -75.1494453 21.78778946 C-75.15813813 24.36488494 -75.15964103 26.94193399 -75.16113281 29.51904297 C-75.16576053 31.36356709 -75.17078512 33.20809026 -75.17617798 35.0526123 C-75.1893074 40.06913895 -75.19574785 45.08565221 -75.20018864 50.10219336 C-75.20311814 53.23484954 -75.20722269 56.36750206 -75.21169281 59.5001564 C-75.2253684 69.2973475 -75.23503508 79.09453021 -75.2388947 88.89173019 C-75.24337749 100.20916418 -75.2609354 111.52647752 -75.2898953 122.84387481 C-75.3114932 131.58704339 -75.32159795 140.33017798 -75.32293582 149.07337296 C-75.32398509 154.29769979 -75.32991897 159.52191321 -75.34775543 164.74621201 C-75.36420369 169.65949192 -75.36640743 174.57257277 -75.35761642 179.48587036 C-75.35684434 181.2898423 -75.36121126 183.09382479 -75.37107468 184.89776993 C-75.38374515 187.35932106 -75.3779444 189.82016193 -75.36749268 192.28170776 C-75.37554908 192.99659548 -75.38360548 193.71148319 -75.39190602 194.44803417 C-75.34828274 198.83683563 -74.57409769 201.45689899 -72 205 C-71.34 205.99 -70.68 206.98 -70 208 C-66.47445949 209.80290412 -63.560839 210.25313309 -59.63114929 210.26742554 C-58.03528488 210.28022049 -58.03528488 210.28022049 -56.40718079 210.29327393 C-54.67168221 210.29191437 -54.67168221 210.29191437 -52.90112305 210.29052734 C-51.67453979 210.29724457 -50.44795654 210.30396179 -49.1842041 210.31088257 C-45.82655622 210.3266119 -42.46915574 210.33323683 -39.1114881 210.33451414 C-37.01098372 210.335938 -34.91050507 210.34021206 -32.8100071 210.34550858 C-25.4739887 210.36400097 -18.13804288 210.37218031 -10.80200195 210.37060547 C-3.97695724 210.36940475 2.84777088 210.39049517 9.67273551 210.4220928 C15.54299152 210.44829634 21.41314441 210.45897104 27.28345841 210.45769465 C30.78478681 210.45718614 34.28583381 210.46280678 37.78710365 210.48405075 C41.69583984 210.50712031 45.60414639 210.49788725 49.51293945 210.48583984 C51.23932899 210.50269836 51.23932899 210.50269836 53.00059509 210.51989746 C59.12995209 210.47194845 65.20606199 210.28436746 70 206 C71.80359569 202.50243041 72.25473709 199.59574854 72.2784729 195.69120789 C72.28963638 194.64097946 72.30079987 193.59075104 72.31230164 192.50869751 C72.31554192 190.79642471 72.31554192 190.79642471 72.31884766 189.04956055 C72.32889328 187.83938766 72.3389389 186.62921478 72.34928894 185.38237 C72.37484923 182.07281693 72.39172353 178.76343465 72.40471697 175.45382285 C72.42036915 171.99177427 72.44715269 168.5298121 72.4727478 165.06782532 C72.51949871 158.51607044 72.55626062 151.96429923 72.58942068 145.41246301 C72.62766817 137.95173425 72.67707143 130.49109236 72.72740483 123.03043687 C72.83066981 107.68702074 72.91994782 92.34355586 73 77 C72.32063385 76.99635437 71.6412677 76.99270874 70.9413147 76.98895264 C63.83504707 76.94696298 56.72941541 76.8775021 49.62353516 76.79248047 C46.97581358 76.76435105 44.32800928 76.74309684 41.68017578 76.72900391 C37.86187636 76.70746404 34.0445632 76.66075353 30.2265625 76.609375 C29.05324371 76.60814636 27.87992493 76.60691772 26.67105103 76.60565186 C18.86058332 76.46819133 11.09707738 75.69392244 5.05947876 70.25042725 C0.56843173 65.38946931 -1.23206707 60.74686945 -1.31884766 54.1081543 C-1.33871735 52.94732834 -1.35858704 51.78650238 -1.37905884 50.59049988 C-1.39061005 49.34762711 -1.40216125 48.10475433 -1.4140625 46.82421875 C-1.43342865 45.54392288 -1.4527948 44.26362701 -1.4727478 42.9445343 C-1.52393948 39.5531222 -1.56363407 36.16167055 -1.60089111 32.77008057 C-1.64101249 29.3043042 -1.69206758 25.83869052 -1.7421875 22.37304688 C-1.83818145 15.58213605 -1.92324652 8.79115406 -2 2 C-4.6215203 0.68923985 -6.50542672 0.90578022 -9.44018555 0.9465332 Z " fill="#9190EF" transform="translate(122,40)"/>
<path d="M0 0 C1.79735524 -0.0027012 3.59470904 -0.00658882 5.39205933 -0.01159668 C9.13895735 -0.01745919 12.88547122 -0.00903248 16.63232422 0.00976562 C21.41126031 0.0325865 26.1892991 0.01939172 30.96820259 -0.00452423 C34.67278697 -0.01904236 38.37716177 -0.01434936 42.08175278 -0.00401306 C43.84303776 -0.00136408 45.60434241 -0.00455041 47.3656044 -0.01393127 C62.17327335 -0.07553175 70.89173582 1.59332668 81.56235886 12.15165329 C83.42542343 14.03531251 85.27535469 15.93129469 87.125 17.828125 C88.43218101 19.14651391 89.74070597 20.46357151 91.05050659 21.77935791 C94.47349958 25.22512311 97.8780785 28.68852601 101.2789917 32.15606689 C104.76087842 35.69962677 108.26007954 39.22599922 111.7578125 42.75390625 C118.60288121 49.66308255 125.42859786 56.5910379 132.2421875 63.53125 C131.9121875 64.19125 131.5821875 64.85125 131.2421875 65.53125 C130.50613281 64.77199219 129.77007812 64.01273438 129.01171875 63.23046875 C128.0263144 62.22629479 127.04062198 61.22240346 126.0546875 60.21875 C125.33055664 59.46948242 125.33055664 59.46948242 124.59179688 58.70507812 C121.69336197 55.76773806 118.88117094 53.48046782 115.2421875 51.53125 C114.9121875 51.86125 114.5821875 52.19125 114.2421875 52.53125 C113.5821875 52.77875 112.9221875 53.02625 112.2421875 53.28125 C110.02606969 54.37690427 110.02606969 54.37690427 109.4296875 56.84375 C109.23541438 59.62833143 109.54950196 61.83747291 110.2421875 64.53125 C111.2321875 64.86125 112.2221875 65.19125 113.2421875 65.53125 C112.9121875 66.52125 112.5821875 67.51125 112.2421875 68.53125 C108.64397447 65.83259022 106.03947986 63.02786545 103.2421875 59.53125 C102.4171875 58.87125 101.5921875 58.21125 100.7421875 57.53125 C98.10416599 55.42083279 96.31576688 53.18802358 94.2421875 50.53125 C91.69022904 47.84497793 89.1195368 45.4315963 86.2421875 43.09375 C83.16314869 40.46373768 80.79140349 37.6687466 78.2421875 34.53125 C76.59478674 32.8455376 74.93152672 31.1749314 73.2421875 29.53125 C70.47995472 26.76901722 70.66362459 24.32418383 70.2421875 20.53125 C69.2521875 20.53125 68.2621875 20.53125 67.2421875 20.53125 C67.1803125 19.9125 67.1184375 19.29375 67.0546875 18.65625 C66.4132685 16.25363859 66.4132685 16.25363859 63.6796875 15.28125 C62.8753125 15.03375 62.0709375 14.78625 61.2421875 14.53125 C61.2421875 15.19125 61.2421875 15.85125 61.2421875 16.53125 C58.9321875 16.86125 56.6221875 17.19125 54.2421875 17.53125 C54.2421875 18.19125 54.2421875 18.85125 54.2421875 19.53125 C54.9021875 19.86125 55.5621875 20.19125 56.2421875 20.53125 C54.5921875 20.86125 52.9421875 21.19125 51.2421875 21.53125 C50.2956461 24.37087421 50.09224526 26.23531529 50.03686523 29.1862793 C50.01692001 30.12702805 49.99697479 31.06777679 49.97642517 32.03703308 C49.95971268 33.04961685 49.94300018 34.06220062 49.92578125 35.10546875 C49.8946096 36.66392265 49.8946096 36.66392265 49.86280823 38.25386047 C49.79738094 41.57542253 49.73845929 44.89706416 49.6796875 48.21875 C49.63649581 50.4694093 49.59288131 52.72006052 49.54882812 54.97070312 C49.44170652 60.4908011 49.33992734 66.01097837 49.2421875 71.53125 C48.9121875 71.53125 48.5821875 71.53125 48.2421875 71.53125 C48.2267263 70.5452607 48.2267263 70.5452607 48.21095276 69.53935242 C48.10293879 62.71013335 47.98833653 55.88104759 47.86987305 49.05200195 C47.82650783 46.50190006 47.78483394 43.95176884 47.74487305 41.40161133 C47.68720911 37.74030711 47.62350325 34.07915078 47.55859375 30.41796875 C47.54188126 29.2741423 47.52516876 28.13031586 47.50794983 26.951828 C47.478032 25.36051811 47.478032 25.36051811 47.44750977 23.73706055 C47.42419334 22.33474434 47.42419334 22.33474434 47.40040588 20.90409851 C47.33246042 18.38138487 47.33246042 18.38138487 46.2421875 15.53125 C24.4621875 15.86125 2.6821875 16.19125 -19.7578125 16.53125 C-19.7578125 15.87125 -19.7578125 15.21125 -19.7578125 14.53125 C-19.0978125 14.20125 -18.4378125 13.87125 -17.7578125 13.53125 C-18.7478125 13.20125 -19.7378125 12.87125 -20.7578125 12.53125 C-21.0878125 13.85125 -21.4178125 15.17125 -21.7578125 16.53125 C-21.7578125 15.54125 -21.7578125 14.55125 -21.7578125 13.53125 C-25.10033974 13.45697162 -27.5614039 13.46578047 -30.7578125 14.53125 C-30.7578125 13.21125 -30.7578125 11.89125 -30.7578125 10.53125 C-32.7378125 11.52125 -32.7378125 11.52125 -34.7578125 12.53125 C-35.4178125 11.87125 -36.0778125 11.21125 -36.7578125 10.53125 C-27.45496427 -0.83889783 -13.47437114 -0.07195905 0 0 Z " fill="#3339EB" transform="translate(74.7578125,24.46875)"/>
<path d="M0 0 C0.99 4.455 0.99 4.455 2 9 C2.66 8.01 3.32 7.02 4 6 C6.125 5.3125 6.125 5.3125 8 5 C7.505 3.515 7.505 3.515 7 2 C9.375 0.9375 9.375 0.9375 12 0 C12.99 0.495 12.99 0.495 14 1 C14 0.34 14 -0.32 14 -1 C16.4375 -0.25 16.4375 -0.25 19 1 C19.8125 3.125 19.8125 3.125 20 5 C20.99 5 21.98 5 23 5 C23.495 7.97 23.495 7.97 24 11 C20.18639594 9.50179841 18.46073339 7.19998733 16 4 C15.9241309 11.51132765 15.87147676 19.02255704 15.83520508 26.53417969 C15.8200893 29.09118339 15.79959634 31.64816106 15.77368164 34.20507812 C15.73742138 37.87376317 15.72030164 41.5421064 15.70703125 45.2109375 C15.69154739 46.35992523 15.67606354 47.50891296 15.66011047 48.69271851 C15.65988388 49.7536673 15.65965729 50.81461609 15.65942383 51.90771484 C15.65276199 52.84481293 15.64610016 53.78191101 15.63923645 54.74740601 C15.75828842 55.49076202 15.87734039 56.23411804 16 57 C19.2775106 59.18500707 20.30510051 59.26351236 24.11401367 59.31884766 C25.67529243 59.34865219 25.67529243 59.34865219 27.26811218 59.37905884 C28.95104118 59.39638565 28.95104118 59.39638565 30.66796875 59.4140625 C32.39289299 59.44311172 32.39289299 59.44311172 34.15266418 59.4727478 C37.83086699 59.53259761 41.509101 59.57895106 45.1875 59.625 C47.67905022 59.66317476 50.17058717 59.70222619 52.66210938 59.7421875 C58.77462194 59.83830362 64.88721421 59.92333538 71 60 C70.67 59.01 70.34 58.02 70 57 C70.66 57 71.32 57 72 57 C72.99 59.97 72.99 59.97 74 63 C55.19 63 36.38 63 17 63 C16.01 61.02 16.01 61.02 15 59 C14.34 59.99 13.68 60.98 13 62 C10.875 63.1875 10.875 63.1875 9 64 C9 65.98 9 67.96 9 70 C10.65 70.33 12.3 70.66 14 71 C14 71.33 14 71.66 14 72 C19.92953644 74.58002731 25.83103121 74.34906925 32.1796875 74.4140625 C33.93153854 74.44311172 33.93153854 74.44311172 35.71878052 74.4727478 C39.43744678 74.53237661 43.15614428 74.57886274 46.875 74.625 C49.40105493 74.66319509 51.92709705 74.70224771 54.453125 74.7421875 C60.63530269 74.83806453 66.81755796 74.92316085 73 75 C73 75.33 73 75.66 73 76 C65.31533361 76.11625699 57.63075932 76.20489817 49.94541168 76.25906086 C46.37605043 76.28506727 42.80729431 76.32029728 39.23828125 76.37719727 C35.78877383 76.43184284 32.33984547 76.46148778 28.88993835 76.47438622 C26.94453817 76.48801305 24.9993684 76.52699448 23.05432129 76.56648254 C15.71227666 76.56879194 10.62613613 75.94399876 5 71 C2.94140625 68.8671875 2.94140625 68.8671875 1.5625 66.875 C1.08941406 66.21242188 0.61632812 65.54984375 0.12890625 64.8671875 C-1.99987885 61.34622115 -2.14426899 58.3559996 -2.20532227 54.33520508 C-2.2352401 52.59373955 -2.2352401 52.59373955 -2.26576233 50.8170929 C-2.28247482 49.56389755 -2.29918732 48.31070221 -2.31640625 47.01953125 C-2.33718735 45.73640549 -2.35796844 44.45327972 -2.37937927 43.13127136 C-2.43451906 39.72337185 -2.48396389 36.31541259 -2.53222656 32.90740967 C-2.58250079 29.42845352 -2.63815591 25.94958393 -2.69335938 22.47070312 C-2.80084189 15.64721049 -2.90230877 8.82363964 -3 2 C-10.57191171 2.0846212 -18.14363488 2.17958788 -25.71524906 2.28752708 C-29.23159451 2.33733522 -32.74791217 2.38366562 -36.2644043 2.421875 C-40.31317507 2.46602393 -44.36159398 2.52561023 -48.41015625 2.5859375 C-50.29179222 2.60326431 -50.29179222 2.60326431 -52.21144104 2.62094116 C-62.45078852 2.56360534 -62.45078852 2.56360534 -71.375 6.9375 C-74.44373094 10.83242773 -74.14613081 14.74141415 -74.14044189 19.46432495 C-74.14341302 20.23106824 -74.14638414 20.99781153 -74.1494453 21.78778946 C-74.15813813 24.36488494 -74.15964103 26.94193399 -74.16113281 29.51904297 C-74.16576053 31.36356709 -74.17078512 33.20809026 -74.17617798 35.0526123 C-74.1893074 40.06913895 -74.19574785 45.08565221 -74.20018864 50.10219336 C-74.20311814 53.23484954 -74.20722269 56.36750206 -74.21169281 59.5001564 C-74.2253684 69.2973475 -74.23503508 79.09453021 -74.2388947 88.89173019 C-74.24337749 100.20916418 -74.2609354 111.52647752 -74.2898953 122.84387481 C-74.3114932 131.58704339 -74.32159795 140.33017798 -74.32293582 149.07337296 C-74.32398509 154.29769979 -74.32991897 159.52191321 -74.34775543 164.74621201 C-74.36420369 169.65949192 -74.36640743 174.57257277 -74.35761642 179.48587036 C-74.35684434 181.2898423 -74.36121126 183.09382479 -74.37107468 184.89776993 C-74.38374515 187.35932106 -74.3779444 189.82016193 -74.36749268 192.28170776 C-74.37554908 192.99659548 -74.38360548 193.71148319 -74.39190602 194.44803417 C-74.34814477 198.85071669 -73.50624098 201.41025329 -71 205 C-70.67 205.99 -70.34 206.98 -70 208 C-70.66 208 -71.32 208 -72 208 C-78.77248789 200.47286323 -77.70581255 191.48745217 -77.64697266 181.9609375 C-77.65375365 180.12053565 -77.66265948 178.28014058 -77.67352295 176.4397583 C-77.69626558 171.45621264 -77.68750073 166.47318608 -77.67162752 161.48963165 C-77.65894245 156.26699963 -77.67071588 151.04441117 -77.67855835 145.82177734 C-77.6876473 137.05232793 -77.67568673 128.28308927 -77.65185547 119.51367188 C-77.62464571 109.3842524 -77.6334604 99.25533617 -77.6609875 89.12592888 C-77.68369899 80.41908914 -77.68686865 71.71240064 -77.67379415 63.00554085 C-77.66601089 57.80966064 -77.66492716 52.61401675 -77.68147659 47.41815186 C-77.69595174 42.53252429 -77.68584395 37.64754367 -77.65700531 32.76198578 C-77.65041077 30.97218651 -77.65226419 29.18233252 -77.66331863 27.39255524 C-77.75756651 10.57938614 -77.75756651 10.57938614 -72 4 C-67.27484969 0.42732537 -63.00234776 -0.11622684 -57.19335938 -0.22119141 C-55.44134216 -0.25595078 -55.44134216 -0.25595078 -53.65393066 -0.29141235 C-52.39657104 -0.3112619 -51.13921143 -0.33111145 -49.84375 -0.3515625 C-48.54932983 -0.37471527 -47.25490967 -0.39786804 -45.92126465 -0.42172241 C-43.18436812 -0.47009418 -40.44744174 -0.51503415 -37.71044922 -0.55761719 C-34.20655781 -0.61245292 -30.70289844 -0.67630474 -27.19921112 -0.74279213 C-23.85163843 -0.80497646 -20.50394964 -0.85913222 -17.15625 -0.9140625 C-15.89889038 -0.93796051 -14.64153076 -0.96185852 -13.34606934 -0.98648071 C-11.59405212 -1.0117836 -11.59405212 -1.0117836 -9.80664062 -1.03759766 C-8.26586853 -1.06305161 -8.26586853 -1.06305161 -6.69396973 -1.08901978 C-4 -1 -4 -1 0 0 Z " fill="#7279ED" transform="translate(122,40)"/>
<path d="M0 0 C0.79409775 -0.00700928 1.5881955 -0.01401855 2.40635681 -0.02124023 C5.02248442 -0.03879793 7.63752415 -0.02720703 10.25366211 -0.01367188 C12.07539578 -0.01636717 13.89712806 -0.02024991 15.71885681 -0.02526855 C19.53276292 -0.03116034 23.34629381 -0.02261003 27.16015625 -0.00390625 C32.04861544 0.01889943 36.93619696 0.00574815 41.82462406 -0.01819611 C45.58473833 -0.03264896 49.34464441 -0.02805076 53.10476494 -0.01768494 C54.90729311 -0.01501707 56.70984019 -0.01828954 58.51234627 -0.02760315 C61.0308759 -0.03776229 63.54798263 -0.02227858 66.06640625 0 C66.81093048 -0.00809692 67.55545471 -0.01619385 68.32254028 -0.02453613 C71.75746059 0.03175797 73.63462979 0.26357969 76.40379333 2.37023926 C78.46260596 5.19565817 78.89859255 7.02191255 78.96850586 10.51757812 C77.71850586 13.83007812 77.71850586 13.83007812 75.96850586 16.51757812 C72.35609039 17.72171661 69.0338228 17.68875592 65.27172852 17.71044922 C64.48928268 17.71862671 63.70683685 17.7268042 62.90068054 17.73522949 C60.31131756 17.76004296 57.72200917 17.77658729 55.13256836 17.79101562 C54.24792278 17.7963393 53.36327721 17.80166298 52.45182419 17.80714798 C47.77119565 17.83385938 43.09059362 17.85324245 38.40991211 17.86767578 C34.53564917 17.88102773 30.66191135 17.90890588 26.7878418 17.94970703 C22.10942464 17.99897863 17.43148462 18.02378967 12.75281906 18.03090286 C10.97060309 18.03762101 9.188398 18.0528578 7.40633011 18.07679367 C4.91167826 18.10839444 2.4188715 18.10849061 -0.07592773 18.10107422 C-1.17800819 18.12568222 -1.17800819 18.12568222 -2.30235291 18.15078735 C-6.25056314 18.10277702 -7.88285757 17.63853861 -10.98721313 15.11221313 C-12.98274859 12.57944677 -13.71912001 11.60515936 -13.65649414 8.45507812 C-13.03149414 4.51757812 -13.03149414 4.51757812 -10.99440002 2.30383301 C-7.27699034 0.06270843 -4.21416804 -0.04595528 0 0 Z " fill="#3339EE" transform="translate(88.031494140625,204.482421875)"/>
<path d="M0 0 C0.78565842 -0.00189835 1.57131683 -0.00379669 2.38078308 -0.00575256 C4.9798681 -0.00945964 7.57867415 0.0012431 10.17773438 0.01245117 C11.98229947 0.01364316 13.78686519 0.01409609 15.59143066 0.01383972 C19.37430706 0.01540449 23.15708882 0.02369349 26.93994141 0.03710938 C31.79240722 0.05409916 36.64476898 0.05792369 41.49726105 0.05716419 C45.22382605 0.05743594 48.95036824 0.06291797 52.67692566 0.07016563 C54.4663221 0.07335099 56.25572112 0.0753194 58.04512024 0.07605934 C60.54444798 0.0782243 63.04366479 0.08697197 65.54296875 0.09765625 C66.65583504 0.09697647 66.65583504 0.09697647 67.79118347 0.09628296 C70.89120931 0.11568833 73.30686515 0.25471351 76.27148438 1.24291992 C78.82514198 4.34378987 79.29394901 5.80860363 79.08398438 9.86791992 C78.27148438 13.24291992 78.27148438 13.24291992 76.27148438 16.24291992 C72.65906891 17.44705841 69.33680131 17.41409772 65.57470703 17.43579102 C64.7922612 17.44396851 64.00981537 17.452146 63.20365906 17.46057129 C60.61429608 17.48538476 58.02498769 17.50192908 55.43554688 17.51635742 C54.5509013 17.5216811 53.66625572 17.52700478 52.7548027 17.53248978 C48.07417416 17.55920117 43.39357213 17.57858424 38.71289062 17.59301758 C34.83862769 17.60636953 30.96488987 17.63424767 27.09082031 17.67504883 C22.41240315 17.72432043 17.73446314 17.74913147 13.05579758 17.75624466 C11.27358161 17.76296281 9.49137652 17.77819959 7.70930862 17.80213547 C5.21465677 17.83373624 2.72185002 17.8338324 0.22705078 17.82641602 C-0.87502968 17.85102402 -0.87502968 17.85102402 -1.99937439 17.87612915 C-5.95020676 17.82808694 -7.57019414 17.37322378 -10.66323853 14.82754517 C-13.72851562 10.99145335 -13.72851562 10.99145335 -13.72851562 8.24291992 C-10.77664423 0.86324143 -7.48071551 -0.0566617 0 0 Z " fill="#3239EF" transform="translate(87.728515625,174.757080078125)"/>
<path d="M0 0 C1.17629723 -0.01248528 1.17629723 -0.01248528 2.37635803 -0.02522278 C4.96514871 -0.04929278 7.55368747 -0.05808985 10.14257812 -0.06469727 C11.94331945 -0.07366378 13.74406002 -0.08278563 15.5447998 -0.09205627 C19.31748261 -0.10853916 23.09007673 -0.11624548 26.86279297 -0.11914062 C31.69864627 -0.1245329 36.53366761 -0.16225034 41.36928558 -0.20788479 C45.08733171 -0.23761029 48.80517604 -0.24486315 52.52333069 -0.24586678 C54.30635908 -0.25007576 56.08938771 -0.26253725 57.87229919 -0.28338432 C60.36471081 -0.31021489 62.85517441 -0.30550022 65.34765625 -0.29296875 C66.08440079 -0.30780304 66.82114532 -0.32263733 67.58021545 -0.33792114 C71.37948527 -0.28347135 72.8714764 0.01094724 75.63415527 2.71055603 C77.9621036 6.63540437 77.60986891 8.80064175 77.17382812 13.30639648 C75.17382812 16.30639648 75.17382812 16.30639648 72.17382812 17.30639648 C69.59966437 17.41774893 67.05184063 17.47402695 64.47705078 17.48339844 C63.69460495 17.48996964 62.91215912 17.49654083 62.10600281 17.50331116 C59.5166311 17.52302256 56.92731727 17.53470075 54.33789062 17.54467773 C53.45324505 17.54875326 52.56859947 17.55282879 51.65714645 17.55702782 C46.97651147 17.57787745 42.29590573 17.59218503 37.61523438 17.6015625 C32.78072047 17.61263615 27.94666566 17.64705007 23.11231422 17.6867342 C19.39424786 17.71287155 15.67629149 17.72125167 11.95814133 17.72484398 C10.17594673 17.72971591 8.39375724 17.74134717 6.61165237 17.75988197 C4.11719506 17.78421695 1.62393408 17.78331933 -0.87060547 17.77636719 C-1.60532578 17.78917725 -2.34004608 17.8019873 -3.09703064 17.81518555 C-7.95311124 17.76589376 -10.41306068 16.75029755 -13.82617188 13.30639648 C-14.82617188 11.49389648 -14.82617188 11.49389648 -14.82617188 9.30639648 C-12.75676506 2.98925989 -12.75676506 2.98925989 -10.20202637 1.11460876 C-6.82173661 -0.03528981 -3.530342 0.00318499 0 0 Z " fill="#3339EE" transform="translate(88.826171875,144.693603515625)"/>
<path d="M0 0 C0.66 0 1.32 0 2 0 C2.33 65.67 2.66 131.34 3 199 C3.99 199.33 4.98 199.66 6 200 C7.140625 202.07421875 7.140625 202.07421875 8.25 204.6875 C10.335323 209.11091242 12.47343934 211.80679226 16.3515625 214.74609375 C18.05660691 216.04305881 19.51637621 217.45793042 21 219 C13.3925685 218.10500806 7.68792543 212.72504918 3 207 C-2.49144787 198.21049816 -1.54383839 188.04663682 -1.4699707 178.10375977 C-1.4704801 176.19584534 -1.47273962 174.28793071 -1.47660828 172.38002014 C-1.48200664 167.22340823 -1.46267537 162.06715844 -1.43850732 156.91061139 C-1.41715582 151.50950595 -1.41780401 146.10840107 -1.41581726 140.70726013 C-1.4093801 131.64632969 -1.38816668 122.58553477 -1.35668945 113.5246582 C-1.31631423 101.88697982 -1.29898754 90.24938945 -1.28938007 78.61164951 C-1.28108715 68.60556414 -1.26385368 58.59949746 -1.24434257 48.59342837 C-1.24029209 46.44532284 -1.23655277 44.29721669 -1.2331202 42.14911008 C-1.22334486 36.03213443 -1.20887562 29.91521167 -1.1862812 23.79826927 C-1.18015143 21.94347233 -1.17570533 20.08866898 -1.17303848 18.23386383 C-1.16906616 15.70868823 -1.15895722 13.18361199 -1.14717102 10.65846252 C-1.14735538 9.91917828 -1.14753975 9.17989403 -1.14772969 8.41820723 C-1.12739792 5.33693238 -0.98243408 2.94730223 0 0 Z " fill="#6F63DB" transform="translate(31,46)"/>
<path d="M0 0 C0.66 0 1.32 0 2 0 C1.8380354 0.50370684 1.6760708 1.00741367 1.50919819 1.52638435 C0.81957536 4.87647839 0.851952 8.17311854 0.85282898 11.57785034 C0.84731395 12.72818856 0.84731395 12.72818856 0.8416875 13.90176594 C0.83066776 16.47341716 0.82680977 19.04502794 0.82299805 21.61669922 C0.81673226 23.45974862 0.81008535 25.30279675 0.80308533 27.14584351 C0.78206166 33.19878258 0.77168663 39.25172187 0.76171875 45.3046875 C0.75767099 47.38849018 0.75355406 49.47229272 0.74936867 51.55609512 C0.73032315 61.34313777 0.71608904 71.13017288 0.7077567 80.91723049 C0.697977 92.21769996 0.67163564 103.51797395 0.63125581 114.81837451 C0.6011166 123.55223632 0.58629003 132.28604199 0.58297569 141.0199548 C0.58062329 146.23707386 0.57163772 151.4539839 0.54651451 156.67104721 C0.52326631 161.57781896 0.51898746 166.48424355 0.52927589 171.39105606 C0.52977211 173.19139001 0.52342653 174.99174087 0.50971985 176.79202271 C0.49204488 179.25115969 0.4990846 181.70904477 0.51225281 184.16818237 C0.50128356 184.87947513 0.49031432 185.59076788 0.47901267 186.32361495 C0.54388652 191.34633837 2.03541517 194.03293505 5 198 C5 198.66 5 199.32 5 200 C8.67135376 201.67664532 11.54870431 202.25531374 15.57453918 202.2784729 C17.23823044 202.29521812 17.23823044 202.29521812 18.93553162 202.31230164 C20.14250198 202.31446182 21.34947235 202.31662201 22.59301758 202.31884766 C23.87146545 202.32889328 25.14991333 202.3389389 26.46710205 202.34928894 C29.96461563 202.37654956 33.46208901 202.39172659 36.9596808 202.40471697 C40.61791729 202.4203648 44.27607192 202.44714974 47.93424988 202.4727478 C54.85787414 202.51950638 61.78151385 202.5562646 68.70521516 202.58942068 C76.58914949 202.62766273 84.47300154 202.67706742 92.35686648 202.72740483 C108.5711852 202.83068123 124.7855496 202.91995555 141 203 C141 203.66 141 204.32 141 205 C97.44 205 53.88 205 9 205 C9 204.34 9 203.68 9 203 C6.34771188 201.92474806 3.71631546 200.90543849 1 200 C0.67 197.69 0.34 195.38 0 193 C-0.66 193 -1.32 193 -2 193 C-2.15414704 169.85131516 -2.30217267 146.70259832 -2.4429636 123.55382824 C-2.50848092 112.80482639 -2.5759814 102.0558439 -2.64819336 91.30688477 C-2.71114741 81.93523627 -2.77033686 72.56357275 -2.82505554 63.19187242 C-2.85414345 58.23225903 -2.88508265 53.27267314 -2.92053413 48.31310081 C-2.95388711 43.63876768 -2.98218146 38.96443041 -3.00670624 34.29004288 C-3.01654719 32.58050314 -3.02818798 30.8709726 -3.04183006 29.16145897 C-3.11077323 20.39159766 -3.06544321 11.72288362 -2 3 C-1.34 3 -0.68 3 0 3 C0 2.01 0 1.02 0 0 Z " fill="#2E41CE" transform="translate(45,48)"/>
<path d="M0 0 C0.78565842 -0.00189835 1.57131683 -0.00379669 2.38078308 -0.00575256 C4.9798681 -0.00945964 7.57867415 0.0012431 10.17773438 0.01245117 C11.98229947 0.01364316 13.78686519 0.01409609 15.59143066 0.01383972 C19.37430706 0.01540449 23.15708882 0.02369349 26.93994141 0.03710938 C31.79240722 0.05409916 36.64476898 0.05792369 41.49726105 0.05716419 C45.22382605 0.05743594 48.95036824 0.06291797 52.67692566 0.07016563 C54.4663221 0.07335099 56.25572112 0.0753194 58.04512024 0.07605934 C60.54444798 0.0782243 63.04366479 0.08697197 65.54296875 0.09765625 C66.65583504 0.09697647 66.65583504 0.09697647 67.79118347 0.09628296 C70.89120931 0.11568833 73.30686515 0.25471351 76.27148438 1.24291992 C78.82514198 4.34378987 79.29394901 5.80860363 79.08398438 9.86791992 C78.27148438 13.24291992 78.27148438 13.24291992 76.27148438 16.24291992 C72.65906891 17.44705841 69.33680131 17.41409772 65.57470703 17.43579102 C64.7922612 17.44396851 64.00981537 17.452146 63.20365906 17.46057129 C60.61429608 17.48538476 58.02498769 17.50192908 55.43554688 17.51635742 C54.5509013 17.5216811 53.66625572 17.52700478 52.7548027 17.53248978 C48.07417416 17.55920117 43.39357213 17.57858424 38.71289062 17.59301758 C34.83862769 17.60636953 30.96488987 17.63424767 27.09082031 17.67504883 C22.41240315 17.72432043 17.73446314 17.74913147 13.05579758 17.75624466 C11.27358161 17.76296281 9.49137652 17.77819959 7.70930862 17.80213547 C5.21465677 17.83373624 2.72185002 17.8338324 0.22705078 17.82641602 C-0.87502968 17.85102402 -0.87502968 17.85102402 -1.99937439 17.87612915 C-5.95020676 17.82808694 -7.57019414 17.37322378 -10.66323853 14.82754517 C-13.72851562 10.99145335 -13.72851562 10.99145335 -13.72851562 8.24291992 C-10.77664423 0.86324143 -7.48071551 -0.0566617 0 0 Z M-9.72851562 5.24291992 C-9.72851562 7.55291992 -9.72851562 9.86291992 -9.72851562 12.24291992 C-9.06851563 12.24291992 -8.40851563 12.24291992 -7.72851562 12.24291992 C-7.72851562 12.90291992 -7.72851562 13.56291992 -7.72851562 14.24291992 C19.00148438 14.24291992 45.73148438 14.24291992 73.27148438 14.24291992 C74.76445649 11.25697568 74.38903665 8.53438368 74.27148438 5.24291992 C73.77648437 4.25291992 73.77648437 4.25291992 73.27148438 3.24291992 C63.33557555 3.19653517 53.39969257 3.1610195 43.46369743 3.13929558 C38.84978276 3.12886806 34.23594229 3.11472767 29.62207031 3.09204102 C25.16762693 3.07027589 20.71325483 3.05834353 16.25876236 3.05316544 C14.56114709 3.04947627 12.86353562 3.04227226 11.16595078 3.03145981 C8.78421412 3.01689608 6.40277027 3.01494401 4.02099609 3.01586914 C3.32256088 3.00867859 2.62412567 3.00148804 1.90452576 2.99407959 C-2.34370024 3.01188038 -5.77676806 3.69434955 -9.72851562 5.24291992 Z " fill="#4649CB" transform="translate(87.728515625,174.757080078125)"/>
<path d="M0 0 C1.17629723 -0.01248528 1.17629723 -0.01248528 2.37635803 -0.02522278 C4.96514871 -0.04929278 7.55368747 -0.05808985 10.14257812 -0.06469727 C11.94331945 -0.07366378 13.74406002 -0.08278563 15.5447998 -0.09205627 C19.31748261 -0.10853916 23.09007673 -0.11624548 26.86279297 -0.11914062 C31.69864627 -0.1245329 36.53366761 -0.16225034 41.36928558 -0.20788479 C45.08733171 -0.23761029 48.80517604 -0.24486315 52.52333069 -0.24586678 C54.30635908 -0.25007576 56.08938771 -0.26253725 57.87229919 -0.28338432 C60.36471081 -0.31021489 62.85517441 -0.30550022 65.34765625 -0.29296875 C66.08440079 -0.30780304 66.82114532 -0.32263733 67.58021545 -0.33792114 C71.37948527 -0.28347135 72.8714764 0.01094724 75.63415527 2.71055603 C77.9621036 6.63540437 77.60986891 8.80064175 77.17382812 13.30639648 C75.17382812 16.30639648 75.17382812 16.30639648 72.17382812 17.30639648 C69.59966437 17.41774893 67.05184063 17.47402695 64.47705078 17.48339844 C63.69460495 17.48996964 62.91215912 17.49654083 62.10600281 17.50331116 C59.5166311 17.52302256 56.92731727 17.53470075 54.33789062 17.54467773 C53.45324505 17.54875326 52.56859947 17.55282879 51.65714645 17.55702782 C46.97651147 17.57787745 42.29590573 17.59218503 37.61523438 17.6015625 C32.78072047 17.61263615 27.94666566 17.64705007 23.11231422 17.6867342 C19.39424786 17.71287155 15.67629149 17.72125167 11.95814133 17.72484398 C10.17594673 17.72971591 8.39375724 17.74134717 6.61165237 17.75988197 C4.11719506 17.78421695 1.62393408 17.78331933 -0.87060547 17.77636719 C-1.60532578 17.78917725 -2.34004608 17.8019873 -3.09703064 17.81518555 C-7.95311124 17.76589376 -10.41306068 16.75029755 -13.82617188 13.30639648 C-14.82617188 11.49389648 -14.82617188 11.49389648 -14.82617188 9.30639648 C-12.75676506 2.98925989 -12.75676506 2.98925989 -10.20202637 1.11460876 C-6.82173661 -0.03528981 -3.530342 0.00318499 0 0 Z M-10.82617188 4.30639648 C-10.86742188 5.58514648 -10.90867187 6.86389648 -10.95117188 8.18139648 C-10.974375 8.90069336 -10.99757813 9.61999023 -11.02148438 10.36108398 C-11.00948876 12.54503294 -11.00948876 12.54503294 -8.82617188 14.30639648 C-6.25263619 14.50998711 -3.78624878 14.58961198 -1.21118164 14.58105469 C-0.42566925 14.58616562 0.35984314 14.59127655 1.16915894 14.59654236 C3.77365677 14.61047703 6.37789113 14.60947868 8.98242188 14.60717773 C10.78841755 14.61106261 12.59441232 14.61539685 14.40040588 14.62016296 C18.18924926 14.62763356 21.97799947 14.62732789 25.7668457 14.62207031 C30.62730936 14.61627533 35.48739199 14.63320322 40.34779263 14.65641499 C44.07866148 14.6711321 47.80943815 14.67202678 51.54033089 14.66890526 C53.33252784 14.66941952 55.12472982 14.67467678 56.91689873 14.68471718 C59.42133356 14.69702496 61.9250209 14.69032432 64.42944336 14.67871094 C65.17292526 14.68635468 65.91640717 14.69399841 66.68241882 14.70187378 C69.60420403 14.6718578 71.68532008 14.62160797 74.17738342 13.01359558 C75.86189873 10.12753175 74.82447527 7.44133272 74.17382812 4.30639648 C70.05309547 2.76339592 66.64852791 2.05722328 62.25463867 2.06347656 C61.1087175 2.06039993 59.96279633 2.0573233 58.78215027 2.05415344 C56.93995659 2.06493172 56.93995659 2.06493172 55.06054688 2.07592773 C53.13611504 2.07661507 53.13611504 2.07661507 51.17280579 2.07731628 C48.4552365 2.0788774 45.73779961 2.08712688 43.02026367 2.10058594 C39.58901804 2.11739048 36.15791859 2.12131235 32.72663689 2.12077522 C10.43369749 0.42508812 10.43369749 0.42508812 -10.82617188 4.30639648 Z " fill="#9697E0" transform="translate(88.826171875,144.693603515625)"/>
<path d="M0 0 C8.33037185 3.95140983 14.62412372 10.35547312 21 16.875 C21.77472656 17.65875 22.54945313 18.4425 23.34765625 19.25 C25.23647093 21.16213338 27.12041391 23.07880182 29 25 C28.34 25.66 27.68 26.32 27 27 C27.495 27.99 27.495 27.99 28 29 C27.34 29 26.68 29 26 29 C26 29.66 26 30.32 26 31 C24.68 30.67 23.36 30.34 22 30 C21.34 30.99 20.68 31.98 20 33 C18 32 18 32 16.5625 29 C15.29136173 25.71082942 15.29136173 25.71082942 12 25 C10.68 25 9.36 25 8 25 C6.5625 23.6875 6.5625 23.6875 5 22 C3.33720673 20.9935725 1.67016516 19.99414593 0 19 C-3.68110812 16.37063706 -5.8851083 14.00716323 -8 10 C-6.02 9.01 -4.04 8.02 -2 7 C-1.67 7.33 -1.34 7.66 -1 8 C-0.67 7.34 -0.34 6.68 0 6 C2.0625 5.375 2.0625 5.375 4 5 C3.01 4.67 2.02 4.34 1 4 C0.3125 1.9375 0.3125 1.9375 0 0 Z " fill="#3339ED" transform="translate(154,41)"/>
<path d="M0 0 C1.31352023 0.30818356 2.62579572 0.62167665 3.9375 0.9375 C5.03384766 1.19853516 5.03384766 1.19853516 6.15234375 1.46484375 C8 2 8 2 9 3 C10.67979496 3.09834849 12.36374582 3.12632005 14.04641724 3.12698364 C15.13992996 3.12980347 16.23344269 3.13262329 17.36009216 3.13552856 C18.57044632 3.13350433 19.78080048 3.1314801 21.02783203 3.12939453 C22.92776161 3.13202301 22.92776161 3.13202301 24.86607361 3.13470459 C28.35192007 3.13928023 31.83773707 3.13748811 35.32358408 3.1343255 C38.97051481 3.13179929 42.61744296 3.13414048 46.26437378 3.13571167 C52.39630588 3.13753399 58.52822597 3.13512689 64.66015625 3.13037109 C71.74063178 3.12494289 78.82107846 3.12668036 85.90155327 3.1321975 C91.98061593 3.13674425 98.05966993 3.13737109 104.13873374 3.13475883 C107.76909029 3.13320278 111.39943331 3.13298358 115.02978897 3.13629532 C119.08514342 3.13973571 123.14044869 3.13495877 127.19580078 3.12939453 C128.39400955 3.13141876 129.59221832 3.13344299 130.82673645 3.13552856 C136.32433575 3.12156799 141.5864679 2.98638698 147 2 C146.67 2.99 146.34 3.98 146 5 C139.72152882 7.64436207 133.25016052 7.27534423 126.53466797 7.24291992 C125.29322021 7.24481827 124.05177246 7.24671661 122.77270508 7.24867249 C119.38437041 7.25173289 115.99628184 7.24589557 112.60797644 7.23571944 C109.05490629 7.22690189 105.50183985 7.22869709 101.94876099 7.2290802 C95.98551221 7.22814536 90.0223145 7.21948462 84.05908203 7.20581055 C77.1704349 7.19007255 70.28184359 7.18481306 63.39317977 7.1855461 C56.04773807 7.18622211 48.7023178 7.17927957 41.35688257 7.1700995 C39.24451141 7.16797109 37.13214371 7.16725872 35.01977158 7.16686058 C31.08200873 7.16566734 27.14429204 7.15594702 23.20654297 7.14526367 C21.45466171 7.14594345 21.45466171 7.14594345 19.66738892 7.14663696 C18.59362 7.14237198 17.51985107 7.13810699 16.4135437 7.13371277 C15.48332838 7.13203692 14.55311306 7.13036108 13.5947094 7.12863445 C6.94419064 6.79893054 6.94419064 6.79893054 4.375 4.625 C3.92125 4.08875 3.4675 3.5525 3 3 C2.443125 2.443125 1.88625 1.88625 1.3125 1.3125 C0.879375 0.879375 0.44625 0.44625 0 0 Z " fill="#7F89E2" transform="translate(46,260)"/>
<path d="M0 0 C0.79409775 -0.00700928 1.5881955 -0.01401855 2.40635681 -0.02124023 C5.02248442 -0.03879793 7.63752415 -0.02720703 10.25366211 -0.01367188 C12.07539578 -0.01636717 13.89712806 -0.02024991 15.71885681 -0.02526855 C19.53276292 -0.03116034 23.34629381 -0.02261003 27.16015625 -0.00390625 C32.04861544 0.01889943 36.93619696 0.00574815 41.82462406 -0.01819611 C45.58473833 -0.03264896 49.34464441 -0.02805076 53.10476494 -0.01768494 C54.90729311 -0.01501707 56.70984019 -0.01828954 58.51234627 -0.02760315 C61.0308759 -0.03776229 63.54798263 -0.02227858 66.06640625 0 C66.81093048 -0.00809692 67.55545471 -0.01619385 68.32254028 -0.02453613 C71.75746059 0.03175797 73.63462979 0.26357969 76.40379333 2.37023926 C78.46260596 5.19565817 78.89859255 7.02191255 78.96850586 10.51757812 C77.71850586 13.83007812 77.71850586 13.83007812 75.96850586 16.51757812 C72.35609039 17.72171661 69.0338228 17.68875592 65.27172852 17.71044922 C64.48928268 17.71862671 63.70683685 17.7268042 62.90068054 17.73522949 C60.31131756 17.76004296 57.72200917 17.77658729 55.13256836 17.79101562 C54.24792278 17.7963393 53.36327721 17.80166298 52.45182419 17.80714798 C47.77119565 17.83385938 43.09059362 17.85324245 38.40991211 17.86767578 C34.53564917 17.88102773 30.66191135 17.90890588 26.7878418 17.94970703 C22.10942464 17.99897863 17.43148462 18.02378967 12.75281906 18.03090286 C10.97060309 18.03762101 9.188398 18.0528578 7.40633011 18.07679367 C4.91167826 18.10839444 2.4188715 18.10849061 -0.07592773 18.10107422 C-1.17800819 18.12568222 -1.17800819 18.12568222 -2.30235291 18.15078735 C-6.25056314 18.10277702 -7.88285757 17.63853861 -10.98721313 15.11221313 C-12.98274859 12.57944677 -13.71912001 11.60515936 -13.65649414 8.45507812 C-13.03149414 4.51757812 -13.03149414 4.51757812 -10.99440002 2.30383301 C-7.27699034 0.06270843 -4.21416804 -0.04595528 0 0 Z M-8.52186584 3.82066345 C-10.54703586 7.43858101 -10.01767469 9.57285593 -9.03149414 13.51757812 C-7.30471878 15.24435348 -5.09099152 14.64356091 -2.78892517 14.65310669 C-1.66291649 14.65007034 -1.66291649 14.65007034 -0.51416016 14.64697266 C0.2728125 14.64872498 1.05978516 14.65047729 1.87060547 14.65228271 C4.48529228 14.65670224 7.09991205 14.65376262 9.71459961 14.65039062 C11.52441928 14.6510637 13.33423887 14.65203376 15.14405823 14.65328979 C18.94305275 14.65476696 22.74202382 14.65261187 26.54101562 14.64794922 C31.41829264 14.64225598 36.29551459 14.64552825 41.17278957 14.65152168 C44.91217974 14.65513026 48.65155679 14.65398727 52.39094734 14.65139389 C54.18954538 14.65072523 55.98814459 14.65155092 57.78674126 14.65387344 C60.29845216 14.65640437 62.81007316 14.65255294 65.32177734 14.64697266 C66.44474968 14.650009 66.44474968 14.650009 67.59040833 14.65310669 C71.40587746 14.70331701 71.40587746 14.70331701 74.96850586 13.51757812 C76.14943886 9.97477912 76.2387896 7.23397951 75.96850586 3.51757812 C72.33542693 1.0955255 69.64037195 1.21505094 65.43945312 1.21118164 C64.29263565 1.19869637 64.29263565 1.19869637 63.12265015 1.18595886 C60.59335247 1.16184783 58.06431254 1.15308607 55.53491211 1.14648438 C53.77758201 1.1375198 52.0202527 1.12839798 50.26292419 1.11912537 C46.57842147 1.10263048 42.89400967 1.09493419 39.20947266 1.09204102 C34.48680276 1.08665263 29.76498636 1.04895648 25.04255772 1.00329685 C21.41286593 0.97356571 17.78338079 0.96631835 14.1535778 0.96531487 C12.41241478 0.96110569 10.67125152 0.94864346 8.93020821 0.92779732 C6.49514945 0.90095948 4.06208391 0.90568376 1.62695312 0.91821289 C0.54753197 0.89596146 0.54753197 0.89596146 -0.55369568 0.8732605 C-4.25127906 0.92747718 -5.76856365 1.27442111 -8.52186584 3.82066345 Z " fill="#9C9FE1" transform="translate(88.031494140625,204.482421875)"/>
<path d="M0 0 C4.01571255 1.60859504 6.70479614 4.43640365 9.68652344 7.45947266 C10.24306107 8.01571823 10.79959869 8.57196381 11.3730011 9.14506531 C13.20657442 10.98002905 15.03296672 12.82196931 16.859375 14.6640625 C18.13117525 15.93959389 19.40341853 17.21468367 20.67608643 18.48934937 C24.02106258 21.84195395 27.35998851 25.20052173 30.69769287 28.56036377 C34.10602831 31.98917456 37.52004745 35.41231573 40.93359375 38.8359375 C47.62797297 45.55175272 54.31597466 52.27388094 61 59 C60.505 59.99 60.505 59.99 60 61 C59.26394531 60.24074219 58.52789062 59.48148438 57.76953125 58.69921875 C56.7841269 57.69504479 55.79843448 56.69115346 54.8125 55.6875 C54.32974609 55.18798828 53.84699219 54.68847656 53.34960938 54.17382812 C50.45117447 51.23648806 47.63898344 48.94921782 44 47 C43.67 47.33 43.34 47.66 43 48 C42.34 48.2475 41.68 48.495 41 48.75 C38.78388219 49.84565427 38.78388219 49.84565427 38.1875 52.3125 C37.99322688 55.09708143 38.30731446 57.30622291 39 60 C39.99 60.33 40.98 60.66 42 61 C41.67 61.99 41.34 62.98 41 64 C37.40178697 61.30134022 34.79729236 58.49661545 32 55 C31.175 54.34 30.35 53.68 29.5 53 C26.86197849 50.88958279 25.07357938 48.65677358 23 46 C20.38541062 43.24780066 17.71057427 40.74062633 14.75 38.375 C12 36 12 36 11 33 C12.65 33.66 14.3 34.32 16 35 C16 35.66 16 36.32 16 37 C18.97 36.505 18.97 36.505 22 36 C26 40.625 26 40.625 26 44 C28.12364481 44.22609337 28.12364481 44.22609337 29.625 42.5 C30.07875 42.005 30.5325 41.51 31 41 C31.99 41.66 32.98 42.32 34 43 C34.74957157 39.52852158 34.74957157 39.52852158 35 36 C33.62846702 34.34145548 33.62846702 34.34145548 31.78710938 32.57592773 C31.08638306 31.87858017 30.38565674 31.1812326 29.66369629 30.4627533 C28.89811401 29.71063065 28.13253174 28.958508 27.34375 28.18359375 C26.56688843 27.41193375 25.79002686 26.64027374 24.98962402 25.8452301 C22.49774627 23.37122968 19.99931456 20.90398559 17.5 18.4375 C15.00155064 15.96659826 12.50453523 13.49429056 10.01037598 11.01905823 C8.45505976 9.47607123 6.89708028 7.93576364 5.33630371 6.39830017 C4.63557739 5.70410477 3.93485107 5.00990936 3.21289062 4.29467773 C2.59111938 3.68115952 1.96934814 3.0676413 1.32873535 2.43553162 C0 1 0 1 0 0 Z " fill="#7680EF" transform="translate(146,29)"/>
<path d="M0 0 C3.40076729 2.62786564 4.28397741 5.92524667 5 10 C5.2945709 14.46544329 5.28346265 18.92185668 5.2746582 23.39575195 C5.27901082 24.75000285 5.2841958 26.10425128 5.29014587 27.45849609 C5.30348996 31.12188728 5.30411955 34.78517501 5.30158257 38.44858575 C5.30050946 41.51489782 5.30540507 44.58118925 5.310188 47.64749688 C5.32126792 54.88700269 5.32172953 62.12645662 5.31567383 69.3659668 C5.30963854 76.81465989 5.32193714 84.26316388 5.3432439 91.71182472 C5.36090594 98.12397086 5.36685391 104.53605708 5.36360615 110.94822663 C5.36180003 114.77034443 5.36436178 118.59232739 5.37832069 122.41442299 C5.39096918 126.01210637 5.38888933 129.60949691 5.37590981 133.20717621 C5.37244652 135.14227067 5.38367088 137.07737437 5.39547729 139.01243591 C5.34125779 148.08106613 4.32206008 156.39705703 -1 164 C-2.43088528 161.13822943 -1.59991697 159.06624227 -1 156 C-0.34 156 0.32 156 1 156 C2.06446644 152.80660068 2.12840011 150.53114525 2.13371277 147.17485046 C2.13797775 145.95934509 2.14224274 144.74383972 2.14663696 143.49150085 C2.14628744 142.14236447 2.1458259 140.79322811 2.14526367 139.4440918 C2.1482555 138.02483023 2.15165809 136.60556949 2.15544128 135.18630981 C2.16428413 131.32876526 2.16661955 127.47124289 2.16725707 123.61368918 C2.16820635 120.39311641 2.17188497 117.17254881 2.17542917 113.95197803 C2.18357519 106.35217865 2.18601331 98.75239113 2.18530273 91.15258789 C2.18470223 83.31540622 2.19524818 75.47829344 2.2110464 67.6411292 C2.22412816 60.91151566 2.22948635 54.18192462 2.22884732 47.45229846 C2.22859248 43.43353881 2.2314362 39.41484035 2.24202538 35.39609337 C2.25171679 31.61468223 2.2517784 27.83339063 2.24450874 24.05197525 C2.24346412 22.66607933 2.24581853 21.28017593 2.2518692 19.89429283 C2.25960926 17.99824388 2.25373587 16.10215408 2.24723816 14.20610046 C2.24778293 13.14624782 2.24832769 12.08639517 2.24888897 10.99442577 C1.97796371 7.73487759 1.10327233 5.06718262 0 2 C0 1.34 0 0.68 0 0 Z " fill="#B0CCEE" transform="translate(207,90)"/>
<path d="M0 0 C4 4.75 4 4.75 4 7 C7.67135376 8.67664532 10.54870431 9.25531374 14.57453918 9.2784729 C16.23823044 9.29521812 16.23823044 9.29521812 17.93553162 9.31230164 C19.14250198 9.31446182 20.34947235 9.31662201 21.59301758 9.31884766 C22.87146545 9.32889328 24.14991333 9.3389389 25.46710205 9.34928894 C28.96461563 9.37654956 32.46208901 9.39172659 35.9596808 9.40471697 C39.61791729 9.4203648 43.27607192 9.44714974 46.93424988 9.4727478 C53.85787414 9.51950638 60.78151385 9.5562646 67.70521516 9.58942068 C75.58914949 9.62766273 83.47300154 9.67706742 91.35686648 9.72740483 C107.5711852 9.83068123 123.7855496 9.91995555 140 10 C140 10.66 140 11.32 140 12 C96.44 12 52.88 12 8 12 C8 11.34 8 10.68 8 10 C5.34771188 8.92474806 2.71631546 7.90543849 0 7 C0 4.69 0 2.38 0 0 Z " fill="#3C3DBB" transform="translate(46,241)"/>
<path d="M0 0 C1.80214496 -0.00015532 3.60429025 -0.00164972 5.40643311 -0.00440979 C9.16173276 -0.00578603 12.91664687 0.00663826 16.671875 0.02954102 C21.46883022 0.05800566 26.26514998 0.05515564 31.06215286 0.0424509 C34.77522146 0.03547735 38.48814473 0.04330077 42.20119476 0.05570793 C43.96970817 0.06020035 45.73823728 0.0605787 47.50675201 0.05664253 C49.98041005 0.05371159 52.45320881 0.07032309 54.92675781 0.09204102 C55.64590363 0.08753937 56.36504944 0.08303772 57.10598755 0.07839966 C62.35472125 0.15444641 66.33727913 1.45005108 71.171875 3.49609375 C70.841875 4.15609375 70.511875 4.81609375 70.171875 5.49609375 C68.521875 5.16609375 66.871875 4.83609375 65.171875 4.49609375 C65.171875 3.83609375 65.171875 3.17609375 65.171875 2.49609375 C54.75837339 2.60342781 44.34494351 2.71602658 33.93157291 2.83543301 C29.09673963 2.89070502 24.26190035 2.94413172 19.42700195 2.9934082 C14.76505016 3.04098882 10.10317433 3.09332908 5.44131279 3.1490345 C3.65865395 3.16948671 1.87597425 3.18819495 0.09327888 3.20516777 C-2.39484101 3.22914861 -4.88281598 3.25921135 -7.37084961 3.29077148 C-8.11531342 3.29652695 -8.85977722 3.30228241 -9.62680054 3.30821228 C-13.01525983 3.06058685 -13.01525983 3.06058685 -15.828125 4.49609375 C-17.61218098 4.86801421 -19.40589415 5.1941967 -21.203125 5.49609375 C-24.21049407 6.00393444 -26.93021663 6.53012429 -29.828125 7.49609375 C-29.828125 8.15609375 -29.828125 8.81609375 -29.828125 9.49609375 C-32.328125 11.12109375 -32.328125 11.12109375 -34.828125 12.49609375 C-35.488125 11.83609375 -36.148125 11.17609375 -36.828125 10.49609375 C-27.50053498 -0.90429405 -13.50215888 -0.09553386 0 0 Z " fill="#A9AEED" transform="translate(74.828125,24.50390625)"/>
<path d="M0 0 C0.78565842 -0.00189835 1.57131683 -0.00379669 2.38078308 -0.00575256 C4.9798681 -0.00945964 7.57867415 0.0012431 10.17773438 0.01245117 C11.98229947 0.01364316 13.78686519 0.01409609 15.59143066 0.01383972 C19.37430706 0.01540449 23.15708882 0.02369349 26.93994141 0.03710938 C31.79240722 0.05409916 36.64476898 0.05792369 41.49726105 0.05716419 C45.22382605 0.05743594 48.95036824 0.06291797 52.67692566 0.07016563 C54.4663221 0.07335099 56.25572112 0.0753194 58.04512024 0.07605934 C60.54444798 0.0782243 63.04366479 0.08697197 65.54296875 0.09765625 C66.65583504 0.09697647 66.65583504 0.09697647 67.79118347 0.09628296 C70.89120931 0.11568833 73.30686515 0.25471351 76.27148438 1.24291992 C75.94148438 1.90291992 75.61148438 2.56291992 75.27148438 3.24291992 C74.28148437 2.91291992 73.29148437 2.58291992 72.27148438 2.24291992 C70.00401714 2.14800587 67.73380787 2.11497533 65.46435547 2.11352539 C64.77611694 2.11177307 64.08787842 2.11002075 63.37878418 2.10821533 C61.10080449 2.10381078 58.82290238 2.10673185 56.54492188 2.11010742 C54.9565123 2.10943352 53.36810283 2.10846277 51.7796936 2.10720825 C48.44572979 2.10573279 45.11179274 2.10787928 41.77783203 2.11254883 C37.52457712 2.11821821 33.2713857 2.11498396 29.01813316 2.10897636 C25.73397351 2.10534286 22.44982861 2.10652258 19.16566849 2.10910416 C17.5989341 2.10976718 16.03219833 2.10896706 14.46546555 2.1066246 C2.8320411 2.06544285 2.8320411 2.06544285 -8.72851562 3.24291992 C-9.9611891 4.25128054 -9.9611891 4.25128054 -9.82617188 6.30932617 C-9.81457031 7.13303711 -9.80296875 7.95674805 -9.79101562 8.80541992 C-9.78199219 9.63170898 -9.77296875 10.45799805 -9.76367188 11.30932617 C-9.75207031 11.94741211 -9.74046875 12.58549805 -9.72851562 13.24291992 C-6.0991602 15.5217625 -3.05272181 15.49069973 1.17626953 15.48583984 C1.86304779 15.48773819 2.54982605 15.48963654 3.25741577 15.49159241 C5.52524281 15.49529274 7.79274831 15.48459979 10.06054688 15.47338867 C11.64513105 15.47219545 13.22971594 15.47174401 14.81430054 15.47200012 C18.13812685 15.4704361 21.46184535 15.46215777 24.78564453 15.44873047 C29.021965 15.43182406 33.25816613 15.42791395 37.49451637 15.42867565 C40.77014278 15.42840196 44.04574369 15.42288765 47.32136154 15.41567421 C48.8816852 15.41251583 50.44201173 15.41052684 52.00233841 15.4097805 C60.15051645 15.4016223 68.17066879 15.24342105 76.27148438 14.24291992 C76.27148438 14.90291992 76.27148438 15.56291992 76.27148438 16.24291992 C72.65906891 17.44705841 69.33680131 17.41409772 65.57470703 17.43579102 C64.7922612 17.44396851 64.00981537 17.452146 63.20365906 17.46057129 C60.61429608 17.48538476 58.02498769 17.50192908 55.43554688 17.51635742 C54.5509013 17.5216811 53.66625572 17.52700478 52.7548027 17.53248978 C48.07417416 17.55920117 43.39357213 17.57858424 38.71289062 17.59301758 C34.83862769 17.60636953 30.96488987 17.63424767 27.09082031 17.67504883 C22.41240315 17.72432043 17.73446314 17.74913147 13.05579758 17.75624466 C11.27358161 17.76296281 9.49137652 17.77819959 7.70930862 17.80213547 C5.21465677 17.83373624 2.72185002 17.8338324 0.22705078 17.82641602 C-0.87502968 17.85102402 -0.87502968 17.85102402 -1.99937439 17.87612915 C-5.95020676 17.82808694 -7.57019414 17.37322378 -10.66323853 14.82754517 C-13.72851562 10.99145335 -13.72851562 10.99145335 -13.72851562 8.24291992 C-10.77664423 0.86324143 -7.48071551 -0.0566617 0 0 Z " fill="#DADAFC" transform="translate(87.728515625,174.757080078125)"/>
<path d="M0 0 C0.66 0 1.32 0 2 0 C2.01030746 0.71996658 2.02061493 1.43993317 2.03123474 2.18171692 C2.12919135 8.96500327 2.23170327 15.74820711 2.33933926 22.53134632 C2.39451576 26.0186684 2.44792726 29.50599895 2.49731445 32.9934082 C2.55416255 37.00220847 2.61867048 41.01085357 2.68359375 45.01953125 C2.70030624 46.27272659 2.71701874 47.52592194 2.73423767 48.8170929 C2.75418289 49.97806992 2.77412811 51.13904694 2.79467773 52.33520508 C2.81799416 53.87075798 2.81799416 53.87075798 2.84178162 55.43733215 C2.89715622 58.12007976 2.89715622 58.12007976 4 61 C6.00016466 62.20882096 6.00016466 62.20882096 8 63 C8 64.32 8 65.64 8 67 C8.639375 67.12375 9.27875 67.2475 9.9375 67.375 C10.9584375 67.684375 10.9584375 67.684375 12 68 C12.33 68.66 12.66 69.32 13 70 C14.31774196 70.39044206 15.65667272 70.70955086 17 71 C18.17973389 71.49765869 18.17973389 71.49765869 19.38330078 72.00537109 C24.63610499 73.44994544 29.75427023 73.35852075 35.1796875 73.4140625 C36.93153854 73.44311172 36.93153854 73.44311172 38.71878052 73.4727478 C42.43744678 73.53237661 46.15614428 73.57886274 49.875 73.625 C52.40105493 73.66319509 54.92709705 73.70224771 57.453125 73.7421875 C63.63530269 73.83806453 69.81755796 73.92316085 76 74 C76 74.33 76 74.66 76 75 C68.31533361 75.11625699 60.63075932 75.20489817 52.94541168 75.25906086 C49.37605043 75.28506727 45.80729431 75.32029728 42.23828125 75.37719727 C38.78877383 75.43184284 35.33984547 75.46148778 31.88993835 75.47438622 C29.94453817 75.48801305 27.9993684 75.52699448 26.05432129 75.56648254 C18.71227666 75.56879194 13.62613613 74.94399876 8 70 C5.94140625 67.8671875 5.94140625 67.8671875 4.5625 65.875 C4.08941406 65.21242188 3.61632812 64.54984375 3.12890625 63.8671875 C0.98272361 60.31744597 0.85518613 57.29747076 0.79467773 53.2434082 C0.77473251 52.06241043 0.75478729 50.88141266 0.73423767 49.66462708 C0.71752518 48.38955795 0.70081268 47.11448883 0.68359375 45.80078125 C0.66281265 44.49545944 0.64203156 43.19013763 0.62062073 41.84526062 C0.56547727 38.37817647 0.51603405 34.91103354 0.46777344 31.44384766 C0.4175019 27.90456931 0.36184537 24.36537611 0.30664062 20.82617188 C0.19915362 13.88418844 0.09768773 6.94212806 0 0 Z " fill="#9793E4" transform="translate(119,41)"/>
<path d="M0 0 C4.27031868 1.97091631 8.65015863 4.12195983 11.4375 8 C12.14955273 10.53174305 12.15143244 11.62037296 11 14 C9.35178756 15.03013277 7.68496298 16.03114628 6 17 C5.67 17.99 5.34 18.98 5 20 C4.01 20.33 3.02 20.66 2 21 C-2.39629158 18.34224191 -5.71161852 14.57676297 -8 10 C-6.02 9.01 -4.04 8.02 -2 7 C-1.67 7.33 -1.34 7.66 -1 8 C-0.67 7.34 -0.34 6.68 0 6 C2.0625 5.375 2.0625 5.375 4 5 C3.01 4.67 2.02 4.34 1 4 C0.3125 1.9375 0.3125 1.9375 0 0 Z " fill="#3339EB" transform="translate(154,41)"/>
<path d="M0 0 C0.55218201 0.32342377 1.10436401 0.64684753 1.67327881 0.98007202 C4.36287528 2.1590679 6.29724349 2.27617345 9.22753906 2.31884766 C10.26831604 2.33871735 11.30909302 2.35858704 12.38140869 2.37905884 C14.05659576 2.39638565 14.05659576 2.39638565 15.765625 2.4140625 C16.91415955 2.43342865 18.06269409 2.4527948 19.24603271 2.4727478 C22.9139463 2.53252126 26.58189129 2.57892064 30.25 2.625 C32.73699284 2.66318178 35.22397249 2.70223362 37.7109375 2.7421875 C43.80717453 2.83822105 49.90349104 2.92327529 56 3 C55.505 1.515 55.505 1.515 55 0 C55.66 0 56.32 0 57 0 C57.66 1.98 58.32 3.96 59 6 C40.19 6 21.38 6 2 6 C1.34 4.02 0.68 2.04 0 0 Z " fill="#898BD7" transform="translate(137,97)"/>
<path d="M0 0 C10.2484893 -0.04630033 20.4969538 -0.08185748 30.74552631 -0.10362434 C35.50413515 -0.1140703 40.26267253 -0.12824431 45.02124023 -0.15087891 C49.61183056 -0.17257834 54.20235208 -0.18456251 58.79298973 -0.18975449 C60.54611482 -0.19345546 62.29923606 -0.20068236 64.05233192 -0.21146011 C66.50412824 -0.22593655 68.95563866 -0.22797957 71.4074707 -0.22705078 C72.13539322 -0.23424133 72.86331573 -0.24143188 73.61329651 -0.24884033 C77.3058022 -0.233662 78.84010925 -0.10659383 82 2 C82 2.66 82 3.32 82 4 C81.49893738 3.83923477 80.99787476 3.67846954 80.48162842 3.51283264 C77.09149909 2.81225678 73.74098578 2.82206772 70.29394531 2.79467773 C69.52282913 2.78477814 68.75171295 2.77487854 67.95722961 2.76467896 C65.41422573 2.73314922 62.87120318 2.70834032 60.328125 2.68359375 C58.56263754 2.66301686 56.79715493 2.64202019 55.03167725 2.62062073 C50.38913909 2.56547601 45.74655702 2.51603325 41.10394287 2.46777344 C36.36482851 2.41750289 31.62577775 2.36184583 26.88671875 2.30664062 C17.5912002 2.19915202 8.29562637 2.09768644 -1 2 C-0.67 1.34 -0.34 0.68 0 0 Z " fill="#4E55D6" transform="translate(82,206)"/>
<path d="M0 0 C2.4375 0.75 2.4375 0.75 5 2 C5.8125 4.125 5.8125 4.125 6 6 C6.99 6 7.98 6 9 6 C9.33 7.98 9.66 9.96 10 12 C5.79509714 10.34807388 5.19017065 8.98771331 2 5 C1.67 22.49 1.34 39.98 1 58 C-0.84561226 54.30877548 -1.2564038 53.1029644 -1.31884766 49.23144531 C-1.33871735 48.29077209 -1.35858704 47.35009888 -1.37905884 46.38092041 C-1.39638565 44.86978668 -1.39638565 44.86978668 -1.4140625 43.328125 C-1.43342865 42.29057068 -1.4527948 41.25301636 -1.4727478 40.184021 C-1.53248842 36.87276408 -1.5789073 33.56147229 -1.625 30.25 C-1.66318482 28.00389116 -1.70223685 25.75779688 -1.7421875 23.51171875 C-1.83818542 18.00794185 -1.92324916 12.50407712 -2 7 C-2.66 7.66 -3.32 8.32 -4 9 C-3.67 6.36 -3.34 3.72 -3 1 C-2.01 1.33 -1.02 1.66 0 2 C0 1.34 0 0.68 0 0 Z " fill="#AAB4F5" transform="translate(136,39)"/>
<path d="M0 0 C0.66 -0.33 1.32 -0.66 2 -1 C2.66 0.32 3.32 1.64 4 3 C4.66 3 5.32 3 6 3 C6.33 4.32 6.66 5.64 7 7 C6.34 7 5.68 7 5 7 C5 7.66 5 8.32 5 9 C3.68 8.67 2.36 8.34 1 8 C0.01 9.485 0.01 9.485 -1 11 C-4.68523007 9.15738497 -5.75164509 4.74506474 -7 1 C-3.375 -1.125 -3.375 -1.125 0 0 Z " fill="#3538F3" transform="translate(175,63)"/>
<path d="M0 0 C2.475 0.99 2.475 0.99 5 2 C5 2.66 5 3.32 5 4 C6.98 3.67 8.96 3.34 11 3 C15.12989477 7.26311718 15.61271765 10.28758534 16 16 C11.07315217 12.71543478 7.65219693 9.63927718 4 5 C3.236875 4.236875 2.47375 3.47375 1.6875 2.6875 C1.130625 2.130625 0.57375 1.57375 0 1 C0 0.67 0 0.34 0 0 Z " fill="#353BE1" transform="translate(157,62)"/>
<path d="M0 0 C0.66 0 1.32 0 2 0 C2.495 1.485 2.495 1.485 3 3 C2.34 3.99 1.68 4.98 1 6 C-1.21463013 6.32279968 -1.21463013 6.32279968 -4.00048828 6.2487793 C-5.56188034 6.21840828 -5.56188034 6.21840828 -7.15481567 6.18742371 C-8.28192963 6.15006607 -9.40904358 6.11270844 -10.5703125 6.07421875 C-12.29735916 6.03455742 -12.29735916 6.03455742 -14.05929565 5.99409485 C-17.74837752 5.90609877 -21.43650059 5.79702854 -25.125 5.6875 C-27.62105904 5.62426564 -30.11715312 5.56239881 -32.61328125 5.50195312 C-38.74268288 5.35052036 -44.87142704 5.18176718 -51 5 C-51 4.67 -51 4.34 -51 4 C-34.17 4 -17.34 4 0 4 C-0.495 2.515 -0.495 2.515 -1 1 C-0.67 0.67 -0.34 0.34 0 0 Z " fill="#333BDE" transform="translate(194,110)"/>
<path d="M0 0 C6.78376359 5.55035203 12.85522968 11.76442027 19 18 C17.09375 18.58203125 17.09375 18.58203125 15 19 C13.5 17.6875 13.5 17.6875 12 16 C10.948125 15.566875 10.948125 15.566875 9.875 15.125 C8 14 8 14 7.25 11.375 C7.1675 10.59125 7.085 9.8075 7 9 C6.34 9 5.68 9 5 9 C3.07847184 6.11770776 1.53612181 3.09872847 0 0 Z " fill="#313DD8" transform="translate(164,48)"/>
<path d="M0 0 C3.375 -0.1875 3.375 -0.1875 7 0 C9.67927341 4.01891012 9.15601248 6.24161923 9 11 C6.00873681 12.72206188 3.89314287 13.24179923 0.453125 13.1953125 C-0.81337891 13.18564453 -0.81337891 13.18564453 -2.10546875 13.17578125 C-2.97816406 13.15902344 -3.85085937 13.14226562 -4.75 13.125 C-6.08224609 13.11146484 -6.08224609 13.11146484 -7.44140625 13.09765625 C-9.62788058 13.07414577 -11.81380094 13.04128499 -14 13 C-14 12.67 -14 12.34 -14 12 C-12.72382813 11.95101562 -11.44765625 11.90203125 -10.1328125 11.8515625 C-8.46351928 11.77653809 -6.79424954 11.70099012 -5.125 11.625 C-4.28324219 11.5940625 -3.44148437 11.563125 -2.57421875 11.53125 C-1.76855469 11.49257812 -0.96289062 11.45390625 -0.1328125 11.4140625 C0.61081543 11.3826416 1.35444336 11.3512207 2.12060547 11.31884766 C4.24010974 11.14580449 4.24010974 11.14580449 6 9 C5.67673447 5.40320934 5.67673447 5.40320934 5 2 C2.525 1.505 2.525 1.505 0 1 C0 0.67 0 0.34 0 0 Z " fill="#5D68CE" transform="translate(157,147)"/>
<path d="M0 0 C0.598125 0.185625 1.19625 0.37125 1.8125 0.5625 C4.16408762 1.22093687 4.16408762 1.22093687 7 0 C7 1.98 7 3.96 7 6 C8.32 6 9.64 6 11 6 C11.33 7.65 11.66 9.3 12 11 C12.99 11.33 13.98 11.66 15 12 C14.67 12.99 14.34 13.98 14 15 C10.40178697 12.30134022 7.79729236 9.49661545 5 6 C4.0925 5.278125 3.185 4.55625 2.25 3.8125 C1.5075 3.214375 0.765 2.61625 0 2 C0 1.34 0 0.68 0 0 Z " fill="#8C85DF" transform="translate(173,78)"/>
<path d="M0 0 C6.03331362 4.98404168 11.5184171 10.41915303 17 16 C16.01 16 15.02 16 14 16 C13 15 12 14 11 13 C9.67405895 12.63837971 8.34061543 12.30271961 7 12 C6.34 11.34 5.68 10.68 5 10 C4.46375 9.525625 3.9275 9.05125 3.375 8.5625 C2 7 2 7 2 4 C1.34 3.67 0.68 3.34 0 3 C0 2.01 0 1.02 0 0 Z " fill="#3342CA" transform="translate(145,29)"/>
<path d="M0 0 C4 4.75 4 4.75 4 7 C6.475 7.99 6.475 7.99 9 9 C9 9.66 9 10.32 9 11 C17.25 11 25.5 11 34 11 C34 11.33 34 11.66 34 12 C25.42 12 16.84 12 8 12 C8 11.34 8 10.68 8 10 C5.34771188 8.92474806 2.71631546 7.90543849 0 7 C0 4.69 0 2.38 0 0 Z " fill="#3A3DD5" transform="translate(46,241)"/>
<path d="M0 0 C1.32 0.33 2.64 0.66 4 1 C4 2.32 4 3.64 4 5 C4.639375 5.12375 5.27875 5.2475 5.9375 5.375 C6.618125 5.58125 7.29875 5.7875 8 6 C8.33 6.66 8.66 7.32 9 8 C11.02463255 8.65213292 11.02463255 8.65213292 13 9 C13 9.66 13 10.32 13 11 C13.66 11.66 14.32 12.32 15 13 C9.72059714 12.37889378 6.27415237 9.80363809 2.1875 6.5625 C0.60378041 4.47865843 0.34619531 2.56184528 0 0 Z " fill="#8D89DF" transform="translate(123,103)"/>
<path d="M0 0 C0 1.65 0 3.3 0 5 C1.65 5 3.3 5 5 5 C5 5.66 5 6.32 5 7 C5.99 7 6.98 7 8 7 C8.33 8.32 8.66 9.64 9 11 C8.01 11.33 7.02 11.66 6 12 C1.60370842 9.34224191 -1.71161852 5.57676297 -4 1 C-2 0 -2 0 0 0 Z " fill="#5D59D4" transform="translate(150,50)"/>
<path d="M0 0 C0 0.66 0 1.32 0 2 C-2.31 2.66 -4.62 3.32 -7 4 C-7 4.66 -7 5.32 -7 6 C-9.5 7.625 -9.5 7.625 -12 9 C-12.66 8.34 -13.32 7.68 -14 7 C-5.68508287 -1.89502762 -5.68508287 -1.89502762 0 0 Z " fill="#8582DD" transform="translate(52,28)"/>
<path d="M0 0 C1.65 0.33 3.3 0.66 5 1 C3.68 1.33 2.36 1.66 1 2 C1 2.99 1 3.98 1 5 C-0.95309888 6.40113616 -2.95708818 7.73339467 -5 9 C-5.66 9.66 -6.32 10.32 -7 11 C-7.33 8.36 -7.66 5.72 -8 3 C-5.36 3.33 -2.72 3.66 0 4 C0 2.68 0 1.36 0 0 Z " fill="#333BE5" transform="translate(54,37)"/>
<path d="M0 0 C0 0.99 0 1.98 0 3 C-1.609375 4.5703125 -1.609375 4.5703125 -3.75 6.125 C-4.44609375 6.64320313 -5.1421875 7.16140625 -5.859375 7.6953125 C-7.94594343 8.96705311 -9.61293238 9.55914517 -12 10 C-11.67 9.01 -11.34 8.02 -11 7 C-11.66 6.34 -12.32 5.68 -13 5 C-10.36 5 -7.72 5 -5 5 C-5 3.68 -5 2.36 -5 1 C-3.35 0.67 -1.7 0.34 0 0 Z " fill="#7A87E5" transform="translate(204,254)"/>
<path d="M0 0 C1.32 0.66 2.64 1.32 4 2 C4.95319686 5.13193253 5.24990303 7.15941709 4.3125 10.3125 C2.68894113 12.39993284 1.57547398 12.65660347 -1 13 C-1 12.01 -1 11.02 -1 10 C-0.34 10 0.32 10 1 10 C0.67 6.7 0.34 3.4 0 0 Z " fill="#7D8ED8" transform="translate(162,177)"/>
<path d="M0 0 C1.02158203 0.00322266 2.04316406 0.00644531 3.09570312 0.00976562 C4.15080078 0.01814453 5.20589844 0.02652344 6.29296875 0.03515625 C7.36740234 0.03966797 8.44183594 0.04417969 9.54882812 0.04882812 C12.19276558 0.06057896 14.83658827 0.07700838 17.48046875 0.09765625 C17.48046875 0.42765625 17.48046875 0.75765625 17.48046875 1.09765625 C16.87984619 1.1227124 16.27922363 1.14776855 15.66040039 1.17358398 C12.95435438 1.28920905 10.24868592 1.41208561 7.54296875 1.53515625 C6.12467773 1.59413086 6.12467773 1.59413086 4.67773438 1.65429688 C3.77861328 1.69619141 2.87949219 1.73808594 1.953125 1.78125 C1.12047119 1.81790771 0.28781738 1.85456543 -0.57006836 1.89233398 C-2.52291983 1.89132728 -2.52291983 1.89132728 -3.51953125 3.09765625 C-6.19011976 3.23880786 -8.84385363 3.14012732 -11.51953125 3.09765625 C-11.18953125 2.43765625 -10.85953125 1.77765625 -10.51953125 1.09765625 C-6.99414728 0.11374693 -3.6441568 -0.02035842 0 0 Z " fill="#4547C8" transform="translate(62.51953125,25.90234375)"/>
<path d="M0 0 C5.55778539 1.19873803 8.14626641 2.61102563 12 7 C12.598125 7.598125 13.19625 8.19625 13.8125 8.8125 C14.204375 9.204375 14.59625 9.59625 15 10 C9.20910272 9.31871797 5.39150206 6.61121291 1.625 2.25 C1.08875 1.5075 0.5525 0.765 0 0 Z " fill="#837FD9" transform="translate(37,255)"/>
<path d="M0 0 C3.24983 -0.08728882 6.4993575 -0.14048658 9.75 -0.1875 C11.13058594 -0.22520508 11.13058594 -0.22520508 12.5390625 -0.26367188 C13.42851562 -0.27333984 14.31796875 -0.28300781 15.234375 -0.29296875 C16.05131836 -0.3086792 16.86826172 -0.32438965 17.70996094 -0.34057617 C20.51240627 0.07620541 21.88847021 1.16195148 24 3 C21 4 21 4 18 3 C18 2.34 18 1.68 18 1 C12.06 1 6.12 1 0 1 C0 0.67 0 0.34 0 0 Z " fill="#6B74D1" transform="translate(122,26)"/>
<path d="M0 0 C1.37478516 0.01740234 1.37478516 0.01740234 2.77734375 0.03515625 C3.69644531 0.04417969 4.61554688 0.05320313 5.5625 0.0625 C6.27277344 0.07410156 6.98304687 0.08570313 7.71484375 0.09765625 C7.71484375 0.42765625 7.71484375 0.75765625 7.71484375 1.09765625 C6.75771484 1.18853516 6.75771484 1.18853516 5.78125 1.28125 C4.95496094 1.36503906 4.12867187 1.44882813 3.27734375 1.53515625 C2.04177734 1.65697266 2.04177734 1.65697266 0.78125 1.78125 C-1.2717765 1.8869644 -1.2717765 1.8869644 -2.28515625 3.09765625 C-2.32608562 5.43063058 -2.32757348 7.7647085 -2.28515625 10.09765625 C-3.27515625 10.42765625 -4.26515625 10.75765625 -5.28515625 11.09765625 C-5.97265625 9.47265625 -5.97265625 9.47265625 -6.28515625 7.09765625 C-3.2839611 0.14034022 -3.2839611 0.14034022 0 0 Z " fill="#A09DE3" transform="translate(80.28515625,175.90234375)"/>
<path d="M0 0 C6.75 1.625 6.75 1.625 9 5 C8.625 7.1875 8.625 7.1875 8 9 C1.42857143 3.85714286 1.42857143 3.85714286 0 0 Z " fill="#8880D9" transform="translate(164,69)"/>
<path d="M0 0 C1.77503906 0.03480469 1.77503906 0.03480469 3.5859375 0.0703125 C5.36871094 0.09738281 5.36871094 0.09738281 7.1875 0.125 C8.10273437 0.14820313 9.01796875 0.17140625 9.9609375 0.1953125 C9.9609375 0.5253125 9.9609375 0.8553125 9.9609375 1.1953125 C5.3409375 1.8553125 0.7209375 2.5153125 -4.0390625 3.1953125 C-4.0390625 4.8453125 -4.0390625 6.4953125 -4.0390625 8.1953125 C-4.3690625 8.1953125 -4.6990625 8.1953125 -5.0390625 8.1953125 C-5.1640625 5.3203125 -5.1640625 5.3203125 -5.0390625 2.1953125 C-3.0390625 0.1953125 -3.0390625 0.1953125 0 0 Z " fill="#3C3BD2" transform="translate(82.0390625,176.8046875)"/>
<path d="M0 0 C0 3.6860549 -0.68858396 5.14925356 -3 8 C-6.1875 8.3125 -6.1875 8.3125 -9 8 C-9 7.34 -9 6.68 -9 6 C-7.03125 4.4921875 -7.03125 4.4921875 -4.5 2.875 C-3.6646875 2.33617187 -2.829375 1.79734375 -1.96875 1.2421875 C-1.3190625 0.83226562 -0.669375 0.42234375 0 0 Z " fill="#3D3BD8" transform="translate(195,244)"/>
<path d="M0 0 C2.82956479 2.70654023 3.96750313 3.9886975 4.09765625 8.0390625 C4.08605469 9.22242187 4.07445312 10.40578125 4.0625 11.625 C4.05347656 12.81351563 4.04445312 14.00203125 4.03515625 15.2265625 C4.02355469 16.14179687 4.01195312 17.05703125 4 18 C3.67 18 3.34 18 3 18 C2.95101562 17.34773438 2.90203125 16.69546875 2.8515625 16.0234375 C2.42586327 11.04716028 1.76610252 6.70960672 0 2 C0 1.34 0 0.68 0 0 Z " fill="#9FB0E9" transform="translate(207,90)"/>
<path d="M0 0 C1.12894876 0.93274109 2.25300876 1.87140122 3.375 2.8125 C4.00148437 3.33457031 4.62796875 3.85664062 5.2734375 4.39453125 C7 6 7 6 9 9 C7.68 9 6.36 9 5 9 C5 8.01 5 7.02 5 6 C3.68 5.67 2.36 5.34 1 5 C0.67 3.35 0.34 1.7 0 0 Z " fill="#3341CC" transform="translate(194,78)"/>
<path d="M0 0 C7.48291572 6.15034169 7.48291572 6.15034169 10 10 C7.6875 9.8125 7.6875 9.8125 5 9 C3.3125 6.6875 3.3125 6.6875 2 4 C1.33429481 2.66618636 0.66780311 1.33276451 0 0 Z " fill="#3442C7" transform="translate(164,48)"/>
<path d="M0 0 C1.65 0 3.3 0 5 0 C5.33 1.98 5.66 3.96 6 6 C3.37812506 4.95125002 2.20628639 4.35068687 0.75 1.875 C0.5025 1.25625 0.255 0.6375 0 0 Z " fill="#9089DD" transform="translate(140,45)"/>
<path d="M0 0 C4 4.75 4 4.75 4 7 C4.99 7.33 5.98 7.66 7 8 C6.01 8.495 6.01 8.495 5 9 C2.375 8.0625 2.375 8.0625 0 7 C0 4.69 0 2.38 0 0 Z " fill="#4754D0" transform="translate(46,241)"/>
<path d="M0 0 C2.99324263 1.0975223 3.84610901 1.67682892 5.25 4.625 C5.4975 5.40875 5.745 6.1925 6 7 C4.125 6.875 4.125 6.875 2 6 C0.75 2.9375 0.75 2.9375 0 0 Z " fill="#3E3ED6" transform="translate(172,73)"/>
<path d="M0 0 C4.21878192 -0.19622241 7.17010894 0.19769832 11 2 C11 2.33 11 2.66 11 3 C3.49230769 3.36923077 3.49230769 3.36923077 1 1.5 C0.67 1.005 0.34 0.51 0 0 Z " fill="#4F4FCE" transform="translate(135,113)"/>
<path d="M0 0 C0 3.86695678 -1.41909971 6.5088452 -3 10 C-3.66 10 -4.32 10 -5 10 C-4.49701212 5.59885603 -2.91227269 3.28804981 0 0 Z " fill="#BAB1EB" transform="translate(37,36)"/>
<path d="M0 0 C1.9375 1.0625 1.9375 1.0625 4 3 C4.75 6.6875 4.75 6.6875 5 10 C3.5 8.6875 3.5 8.6875 2 7 C2 6.01 2 5.02 2 4 C1.34 3.67 0.68 3.34 0 3 C0 2.01 0 1.02 0 0 Z " fill="#3642D9" transform="translate(145,29)"/>
<path d="M0 0 C0 0.99 0 1.98 0 3 C-0.66 3.66 -1.32 4.32 -2 5 C-2.99 5 -3.98 5 -5 5 C-5 3.68 -5 2.36 -5 1 C-3.35 0.67 -1.7 0.34 0 0 Z " fill="#8996E5" transform="translate(204,254)"/>
<path d="M0 0 C0.309375 0.94875 0.61875 1.8975 0.9375 2.875 C1.87394742 5.86080408 1.87394742 5.86080408 3 8 C-0.82946843 6.54744301 -2.12050295 4.57104439 -4 1 C-2 0 -2 0 0 0 Z " fill="#A299E7" transform="translate(150,50)"/>
<path d="M0 0 C2.3125 0.125 2.3125 0.125 5 1 C6.8125 4.0625 6.8125 4.0625 8 7 C4.2047869 5.50902342 2.38957269 3.24299151 0 0 Z " fill="#A4A0E0" transform="translate(37,255)"/>
<path d="M0 0 C2.5625 2.25 2.5625 2.25 5 5 C4.8125 7.3125 4.8125 7.3125 4 9 C0 2.25 0 2.25 0 0 Z " fill="#3545CA" transform="translate(203,87)"/>
<path d="M0 0 C2.475 0.99 2.475 0.99 5 2 C5 2.66 5 3.32 5 4 C5.66 4 6.32 4 7 4 C6.67 4.99 6.34 5.98 6 7 C1.125 3.375 1.125 3.375 0 0 Z " fill="#A599DD" transform="translate(157,62)"/>
<path d="M0 0 C0.33 0.66 0.66 1.32 1 2 C2.65 1.67 4.3 1.34 6 1 C4.35830472 3.02054804 2.69088222 5.02043058 1 7 C0.67 7 0.34 7 0 7 C-0.38133299 5.0085944 -0.71325582 3.00720923 -1 1 C-0.67 0.67 -0.34 0.34 0 0 Z " fill="#3946D2" transform="translate(47,41)"/>
<path d="M0 0 C0.66 0 1.32 0 2 0 C0.90931332 3.77545388 0.0916909 6.47043472 -3 9 C-3.25532751 5.93606987 -3.21861333 4.36766788 -1.625 1.6875 C-0.820625 0.8521875 -0.820625 0.8521875 0 0 Z " fill="#443ECD" transform="translate(38,36)"/>
<path d="M0 0 C1.32 0.33 2.64 0.66 4 1 C4 2.98 4 4.96 4 7 C1 5 1 5 0.3125 2.375 C0.209375 1.59125 0.10625 0.8075 0 0 Z " fill="#7F78DF" transform="translate(123,103)"/>
</svg>
